<?xml version="1.0" encoding="utf-8"?>
<!-- Generator: Adobe Illustrator 25.1.0, SVG Export Plug-In . SVG Version: 6.00 Build 0)  -->
<svg version="1.1" id="Capa_1" xmlns="http://www.w3.org/2000/svg" xmlns:xlink="http://www.w3.org/1999/xlink" x="0px" y="0px"
	 viewBox="0 0 615.2 478.2" style="enable-background:new 0 0 615.2 478.2;" xml:space="preserve">
<style type="text/css">
	.st0{clip-path:url(#SVGID_2_);}
	.st1{opacity:0.9;}
	.st2{fill:#DA0023;}
	.st3{fill:#FFFFFF;}
	.st4{clip-path:url(#SVGID_4_);}
	.st5{clip-path:url(#SVGID_6_);}
	.st6{fill:none;}
	.st7{clip-path:url(#SVGID_8_);}
	.st8{opacity:0.9;fill:#DA0023;enable-background:new    ;}
</style>
<g>
	<g>
		<g>
			<g>
				<g>
					<defs>
						<path id="SVGID_1_" d="M357.7,341.1c-7.8,11.9-27.4,16-45.6,33.3c3.7,5.7,9.9,13.1,11.1,15.3c9.1,14.4,1.7,33-2.2,47.8
							c-0.1,0.2-0.1,0.4-0.3,0.6c0,0-0.6,0.3-0.5-0.7c0.9-10.5,0.9-17.4-2.3-23.5c-5.3-9.7-12.8-15.4-14.3-26.1
							c-0.1-0.7-0.1-1.6-0.2-2.3c0-0.4-0.1-1.5,0.1-2.4c1.8-11.8,0.7-22.9,5.1-28c8.2-10,18.7-14,30.5-21.5
							c-6.5-0.6-15-1.6-26.3-2.5c-17.7-1.6-48-6.6-48.2-11.3l1.5-19.7l0.1-0.3l0,0c2.2-6.5,23.4-5.8,55.3-15
							c12.4-3.2,18.5-6.8,20.6-10.2c-2.6-2.7-4.7-4.9-18.1-11.3c-6.7-3.6-9.8-7.6-13-11.4c-5.3-7-5.4-18-5.3-20.4
							c0-0.3,0.2-0.5,0.4-0.6c0.2,0,0.3,0.1,0.3,0.1c5.9,16.2,19.3,16.7,28.8,22.6c4.4,2.8,7.8,6.9,8.5,9.7c0.6,2.2,1.8,5.2,2.3,7.8
							c0.6,2.8,1.1,5.6,1.6,8.1c0.5,2.9,1.3,6.6,1.3,8.5c0,1,0.3,8.5-26.6,15c-7.6,1.9-14.2,3.4-20.4,5c23.2,3.8,53,5.5,55.2,11.2
							c0.5,3.5,1,10.5,1.6,16.5c0,0,0.3,2.6,0.3,3.5C358.7,339.4,358.1,340.5,357.7,341.1z"/>
					</defs>
					<clipPath id="SVGID_2_">
						<use xlink:href="#SVGID_1_"  style="overflow:visible;"/>
					</clipPath>
					<g class="st0">
						
							<image style="overflow:visible;enable-background:new    ;" width="802" height="1691" id="HOSA-Ribbon-Light_xA0_Image_2_" xlink:href="48B8ACEBBBECB09A.png"  transform="matrix(0.1276 0 0 0.1276 261.165 227.5658)">
						</image>
					</g>
				</g>
			</g>
			<g class="st1">
				<path class="st2" d="M320.6,438.1c-0.1,0-0.2,0-0.2-0.1c-0.2-0.1-0.3-0.3-0.2-0.8c1.1-13.9,0.1-18.8-2.3-23.5
					c-1.8-3.3-3.9-6-5.8-8.8c-3.9-5.3-7.5-10.4-8.5-17.4c-0.1-0.5-0.1-1-0.1-1.6c0-0.3,0-0.5,0-0.7c0-0.5-0.1-1.6,0.1-2.4
					c0.6-3.8,0.9-7.5,1.1-11c0.5-7.2,0.9-13.5,4.1-17c5.9-7.2,12.9-11.2,21-15.8c3-1.7,6.1-3.5,9.3-5.5l-2-0.2
					c-6.3-0.6-14.1-1.4-24.1-2.2c-9.6-0.8-21.6-2.6-30.6-4.5c-7.9-1.6-17.5-4.2-17.7-6.9l1.6-19.7l0.1-0.3l0,0
					c1.4-3.6,8.8-5,20.9-7.2c9.2-1.7,20.7-3.8,34.4-7.7c14-3.5,18.9-7.4,20.5-10.1l-0.1-0.1c-2.5-2.7-4.7-4.9-17.9-11.2
					c-6.4-3.5-9.6-7.2-12.6-10.8l-0.5-0.6c-5.8-7.8-5.3-20.3-5.3-20.4c0-0.3,0.3-0.6,0.4-0.6c0.3-0.1,0.4,0.1,0.4,0.2l0,0
					c4.3,11.8,12.5,15.2,20.4,18.5c3,1.2,5.8,2.4,8.4,4c2.1,1.3,4.1,3,5.6,4.8c1.5,1.7,2.5,3.5,2.8,4.8c0.2,0.7,0.4,1.5,0.7,2.2
					c0.6,1.8,1.3,3.8,1.6,5.6c0.6,3,1.2,6.1,1.6,8.1l0.1,0.5c0.5,2.8,1.2,6.1,1.1,8v0.1c0,1.8-1.1,3.7-3.4,5.5
					c-4.2,3.5-12.1,6.7-23.3,9.5c-2.8,0.7-5.3,1.3-7.8,1.9c-4.3,1-8.4,2-12.2,3c6.3,1,13.1,1.9,19.7,2.8c17.3,2.2,33.6,4.3,35.3,8.5
					c0.4,3,0.9,8.4,1.3,13.6c0.1,0.9,0.2,1.9,0.3,2.8c0,0,0.3,2.7,0.3,3.5l0,0c-0.1,0.6-0.6,1.6-1,2.2c-4.1,6.1-11.2,10.2-19.5,15
					c-8.1,4.7-17.3,9.8-26.1,18.3c2.1,3.2,4.9,6.9,7.2,9.8c1.9,2.5,3.4,4.4,4,5.3c7.8,12.5,3.5,28-0.5,41.7
					c-0.6,2.2-1.2,4.1-1.7,6.1v0.1c0,0.2-0.1,0.4-0.3,0.5C320.8,438,320.7,438.1,320.6,438.1z"/>
			</g>
		</g>
		<g>
			<path class="st3" d="M240.7,358.8l0.6,1.6l-17.7,0.4l-29.9-55.3v0.9v36.3c0,9.1,0.6,14.2,2.2,17.6l0.8,1.7l-23.3,1l0.7-1.8
				c1.6-4.4,2.5-12.9,2.5-24.2v-44.7c0-10.9-0.3-18.5-2-22.9l-0.6-1.7h17.9l29.1,56.3v-1l0.1-36.3c0-9.6-0.5-14.1-2-17.3l-0.8-1.8
				h22.6l-0.7,1.7c-1.7,4.4-2.1,11.7-2.1,22.9v42.6C238.1,346.3,238.9,354.3,240.7,358.8"/>
			<path class="st3" d="M118.4,266c-10.3,0-19.7,5.3-26.5,14.8c-6.6,9.3-10.2,21.7-10.2,35.2c0,13.5,3.6,26.1,10.2,35.5
				c6.8,9.7,16.2,15.2,26.5,15.2c10.4,0,19.8-5.3,26.7-15.1c6.6-9.4,10.3-22.1,10.3-35.6C155.3,287.5,139.4,266,118.4,266
				 M118.5,347.5c-10.7,0-19.1-13.8-19.1-31.5c0-17.3,8.4-30.8,19.1-30.8s19.1,13.5,19.1,30.8C137.6,333.7,129.2,347.5,118.5,347.5"
				/>
			<path class="st3" d="M437.4,337.1v-44.7c0-10.9,0.3-18.5,2-22.9l0.6-1.7h-18.6l-19,42.1l-18.9-42.1h-18.7l0.6,1.7
				c1.6,4.5,2,12.1,2,22.9v47.4c0,9.6-1.5,15.4-2.8,18.6l-0.6,1.6l23.8,0.5l-0.9-1.8c-1.6-3.5-2.4-9.7-2.4-18.2l-0.1-35l16.5,36.2
				h2.8l16.4-36.2l-0.1,37.1c0,9.6-0.5,14.1-2,17.3l-0.8,1.7l22.9,1.1l-0.7-1.8C438.2,356.9,437.4,349.1,437.4,337.1"/>
			<g>
				<path class="st3" d="M506.7,276.9c-0.6-3.5-0.6-5.5,0.1-7.3l0.6-1.7h-2.8h-2.7h-14.2H485h-2.9l0.6,1.7c0.8,2.1,0.7,4.4-0.3,9.1
					L464.8,353c-1.7,7.2-3.8,10.6-3.8,10.6l22.5,1.3l-1.3-2.1c-1-1.6-0.5-4.9,0.7-10.1l11.9-58.6l12,61c1.5,6.4,1.5,8.3,0.5,9.8
					l-1.1,1.7l23.6,2c0,0-3.1-4.8-4.4-11.8L506.7,276.9z"/>
				<path class="st3" d="M590.5,374.6l24.7,3.3c-0.9-0.4-4.6-7.3-7.5-16.7l-7.6-27.4c7.5-5.1,11-20.5,11-31.8
					c0-19.4-11.6-34.1-26.9-34.1h-32.9l0.6,1.7c1.6,4.2,2,11.2,2,33.8l-0.1,52.6c0,0.6-0.6,8.2-2.2,12.7l-0.5,1.6l23,2.4l-0.9-2
					c-1.5-3.3-2.2-9.4-2.2-18.6v-15.3l13.1,1.2l6.2,23.3c1.7,6,2.1,9.9,1.1,11.7L590.5,374.6z M583.1,320.2L571,319v-33h11.2
					c7.2,0,11.7,8.5,11.7,16.3C594,310.3,590.4,320.2,583.1,320.2z"/>
			</g>
			<path class="st3" d="M51.6,316.8c-3.1-2.1-6.5-3.8-9.1-5c-1.4-0.7-2.8-1.3-4.3-1.9c-4.4-1.9-8.9-3.8-12.1-6.8
				c-2.1-2-3.5-5.2-3.5-8.5c0-6.2,5.7-10.2,11-10.3h0.2c5.4,0,14.2,2.3,17.1,10.9l0.3-0.3l10.2-14.5l-0.5-0.7
				c-5.8-8.1-16.7-13.5-27.1-13.5c-8.2,0-15.6,2.9-20.8,8.3c-5.2,5.3-8.1,12.8-8.1,21c-0.1,9.5,3.9,16.8,11.5,22.2
				c3.8,2.8,8,4.7,12,6.6c5.9,2.8,11.3,5.4,15.7,10.1c1.9,2,3.1,6.4,2.9,9.7c-0.3,6.7-6.2,12.2-13.6,12.7c-0.3,0-0.5,0-0.8,0
				c-8,0-16.8-6.2-22.9-16.6l-0.1-0.1L0,357.4l0.5,0.6c6.1,8.1,17.7,16.6,31.7,16.6l0,0c0.3,0,0.7,0,1,0C51.2,374,64.8,360,64.9,342
				c0-4.9-0.9-11.5-5.1-17.4C57.8,321.7,55,319.2,51.6,316.8"/>
		</g>
		<path class="st3" d="M296.8,347.8c-1.5,7.1-1.2,9.1-0.3,10.8l1.3,2.2l-25.3,0.5c0,0,2.6-3,4.6-13.2l18.4-79.1
			c1.6-7.1,2-10.5,0.9-13.1l-0.9-2.1h28.2l-0.9,2.1c-1.3,3.1-0.3,7.6,1.5,15.7c0.3,1.3,0.6,2.6,0.9,4.1v0.1l16.8,72.6
			c1.6,8.3,4.5,12.9,4.5,12.9l-25.2-0.3l1.3-2.2c1-1.7,1.3-3.9-0.3-11.4l-12.7-63.5L296.8,347.8z"/>
		<g>
			<g>
				<path class="st3" d="M189.9,212.1c0,2.8,0.1,4.5,0.6,5.6H185c0.4-0.9,0.6-2,0.6-4.2V209h-8.2v4.5c0,2.2,0.2,3.4,0.6,4.2h-5.4
					c0.5-0.9,0.6-2,0.6-4.2V203c0-2.8-0.1-4.5-0.6-5.5h5.4c-0.4,0.9-0.6,2-0.6,4.2v3.5h8.2v-3.5c0-2.2-0.2-3.4-0.6-4.2h5.4
					c-0.5,1.1-0.6,2.8-0.6,5.5V212.1z M213.8,207.5c0-6.3,4.3-10.5,10.3-10.5c6,0,10.4,4.2,10.4,10.5c0,6.4-4.3,10.5-10.4,10.5
					S213.8,213.9,213.8,207.5z M230,207.5c0-4.1-2.4-6.6-6-6.6c-3.5,0-5.9,2.5-5.9,6.6c0,4.1,2.4,6.6,5.9,6.6
					C227.6,214.1,230,211.6,230,207.5z M274,203v7.9c0,4.1-2.9,7.2-8,7.2s-8-3-8-7.2V203c0-2.8-0.2-4.5-0.6-5.6h5.4
					c-0.5,0.9-0.6,2-0.6,4.2v8.4c0,2.6,1.2,4.1,3.8,4.1s3.8-1.6,3.8-4.1v-8.4c0-2.2-0.2-3.4-0.6-4.2h5.4
					C274.1,198.5,274,200.3,274,203z M347.4,201.8c-0.9-0.4-2-0.6-4.2-0.6h-4.6v4.6h4.4c1.5,0,2.6-0.1,3.2-0.3v3.9
					c-0.6-0.3-1.6-0.3-3.2-0.3h-4.4v4.8h4.6c2.2,0,3.4-0.2,4.2-0.6v4.4h-13.6c0.5-1.1,0.6-2.8,0.6-5.6V203c0-2.8-0.1-4.5-0.6-5.5
					h13.6V201.8z M383.1,207.5c0-6.3,4.3-10.5,10.3-10.5c6,0,10.4,4.2,10.4,10.5c0,6.4-4.3,10.5-10.4,10.5
					C387.4,218.1,383.1,213.9,383.1,207.5z M399.3,207.5c0-4.1-2.4-6.6-6-6.6c-3.5,0-5.9,2.5-5.9,6.6c0,4.1,2.4,6.6,5.9,6.6
					C396.9,214.1,399.3,211.6,399.3,207.5z M440.3,201.8c-0.9-0.4-2-0.6-4.2-0.6h-4.3v4.8h3.5c1.6,0,2.6-0.1,3.2-0.3v3.9
					c-0.6-0.3-1.6-0.3-3.2-0.3h-3.5v4.1c0,2.2,0.1,3.4,0.6,4.2H427c0.5-1.1,0.6-2.8,0.6-5.6V203c0-2.8-0.1-4.5-0.6-5.5h13.4V201.8z
					 M307.8,206.8c-0.6-0.4-1.3-0.7-1.8-0.9c-0.3-0.1-0.6-0.3-0.9-0.3c-0.9-0.3-1.8-0.8-2.5-1.3c-0.4-0.3-0.7-1-0.7-1.6
					c0-1.2,1.2-2,2.2-2l0,0c1.1,0,2.9,0.4,3.5,2.2l0.1-0.1l2.1-2.8l-0.1-0.2c-1.2-1.6-3.5-2.7-5.5-2.7c-1.6,0-3.2,0.6-4.3,1.6
					c-1,1-1.6,2.5-1.6,4.1c0,1.8,0.8,3.3,2.3,4.3c0.8,0.5,1.6,0.9,2.5,1.3c1.2,0.5,2.3,1,3.2,2c0.4,0.4,0.6,1.2,0.6,1.9
					c-0.1,1.3-1.3,2.4-2.8,2.5c-0.1,0-0.1,0-0.2,0c-1.6,0-3.5-1.2-4.7-3.3l0,0l-1.9,3.5l0.1,0.1c1.3,1.6,3.6,3.3,6.5,3.3l0,0
					c0.1,0,0.2,0,0.2,0c3.7-0.1,6.5-2.8,6.5-6.4c0-0.9-0.2-2.2-1-3.4C309.1,207.8,308.5,207.3,307.8,206.8"/>
			</g>
		</g>
		<g>
			<g>
				<defs>
					<path id="SVGID_3_" d="M321.8,331.7L321.8,331.7c34.6,2.8,37.1,6,36.8,7.6c0.1-0.1,0.2-0.3,0.2-0.4c0-0.9-0.3-3.5-0.3-3.5
						c-0.5-6-0.9-12.9-1.6-16.5c-2.2-5.7-32.2-7.7-55.5-11c-26.2-3.3-35.4-6.6-35.2-8.4c0-0.1,0-0.3,0.1-0.3
						c-0.3,0.3-0.3,0.6-0.3,0.6l-1.6,19.7c0.3,4.7,30.5,9.8,48.2,11.3C316,331.2,319.1,331.5,321.8,331.7z"/>
				</defs>
				<clipPath id="SVGID_4_">
					<use xlink:href="#SVGID_3_"  style="overflow:visible;"/>
				</clipPath>
				<g class="st4">
					
						<image style="overflow:visible;enable-background:new    ;" width="802" height="1691" id="HOSA-Ribbon-Light_xA0_Image_1_" xlink:href="48B8ACEBBBECB09E.png"  transform="matrix(0.1276 0 0 0.1276 261.176 227.6324)">
					</image>
				</g>
			</g>
			<g>
				<defs>
					<path id="SVGID_5_" d="M321.8,331.7L321.8,331.7c34.6,2.8,37.1,6,36.8,7.6c0.1-0.1,0.2-0.3,0.2-0.4c0-0.9-0.3-3.5-0.3-3.5
						c-0.5-6-0.9-12.9-1.6-16.5c-2.2-5.7-32.2-7.7-55.5-11c-26.2-3.3-35.4-6.6-35.2-8.4c0-0.1,0-0.3,0.1-0.3
						c-0.3,0.3-0.3,0.6-0.3,0.6l-1.6,19.7c0.3,4.7,30.5,9.8,48.2,11.3C316,331.2,319.1,331.5,321.8,331.7z"/>
				</defs>
				<clipPath id="SVGID_6_">
					<use xlink:href="#SVGID_5_"  style="overflow:visible;"/>
				</clipPath>
				<g class="st5">
					<path class="st6" d="M358.6,339.3C358.6,339.3,358.6,339.4,358.6,339.3c0.1-0.2,0.2-0.3,0.2-0.5c0-0.9-0.3-3.5-0.3-3.5
						c-0.5-6-0.9-12.9-1.6-16.5c-2.2-5.7-32-7.4-55.2-11.2c-26.2-3.3-35.6-6.4-35.5-8.1c0-0.1,0-0.3,0.1-0.3
						c-0.3,0.3-0.3,0.6-0.3,0.6l-1.6,19.7c0.3,4.7,30.5,9.8,48.2,11.3c3.2,0.3,6.1,0.5,9,0.8l0,0
						C356.9,334.5,358.9,337.8,358.6,339.3z"/>
				</g>
			</g>
			<g>
				<defs>
					<path id="SVGID_7_" d="M321.8,331.7L321.8,331.7c34.6,2.8,37.1,6,36.8,7.6c0.1-0.1,0.2-0.3,0.2-0.4c0-0.9-0.3-3.5-0.3-3.5
						c-0.5-6-0.9-12.9-1.6-16.5c-2.2-5.7-32.2-7.7-55.5-11c-26.2-3.3-35.4-6.6-35.2-8.4c0-0.1,0-0.3,0.1-0.3
						c-0.3,0.3-0.3,0.6-0.3,0.6l-1.6,19.7c0.3,4.7,30.5,9.8,48.2,11.3C316,331.2,319.1,331.5,321.8,331.7z"/>
				</defs>
				<clipPath id="SVGID_8_">
					<use xlink:href="#SVGID_7_"  style="overflow:visible;"/>
				</clipPath>
				<g class="st7">
					<path class="st6" d="M321.8,331.7L321.8,331.7c34.6,2.8,37.1,6,36.8,7.6c0.1-0.1,0.2-0.3,0.2-0.4c0-0.9-0.3-3.5-0.3-3.5
						c-0.5-6-0.9-12.9-1.6-16.5c-2.2-5.7-32.2-7.7-55.5-11c-26.2-3.3-35.4-6.6-35.2-8.4c0-0.1,0-0.3,0.1-0.3
						c-0.3,0.3-0.3,0.6-0.3,0.6l-1.6,19.7c0.3,4.7,30.5,9.8,48.2,11.3C316,331.2,319.1,331.5,321.8,331.7z"/>
				</g>
			</g>
		</g>
		<path class="st8" d="M358.6,335.5c-0.1-0.9-0.2-1.9-0.3-2.8c-0.4-5.3-0.9-10.6-1.3-13.6c-1.6-4.4-19.4-6.6-38.1-8.8
			c-5.8-0.7-11.8-1.5-17.3-2.2c-28-3.5-35.3-6.9-35.2-8.3v-0.1c0-0.1-0.1-0.3-0.2-0.3c-0.2,0.3-0.3,0.6-0.3,0.6l-1.5,19.7
			c0.3,4.9,31.1,9.9,48.3,11.4c2.9,0.3,5.9,0.5,9,0.8l0,0c22.2,1.7,34.4,4,36.4,6.6c0.3,0.3,0.3,0.6,0.3,0.9l0.1,0.1
			c0.1-0.1,0.2-0.3,0.2-0.4C358.8,338,358.6,335.5,358.6,335.5z"/>
	</g>
	<g>
		<path class="st3" d="M323.9,68.1c-2.4-0.2-7.2-0.5-10.4-0.5c0.7,0,1.7-0.1,2.2-0.4c2.2-1.8,2.8,0.8,5-0.1c0.8-0.3,1.3-0.3,2.2-0.3
			c1.2,0.2,1.6,1,3,0.5c1-0.4,1.7,0.2,2.8,0.6c2.1,1,4.3,0.7,4.3,0.7c-0.4-0.4-2.1-4.5-11-4.5c-2.2,0.1-5.8,0.3-8.5,0.6
			c1.7-1.6,2.7-0.3,4.3-1.4c0.6-0.3,1.5-0.3,2.2-0.3c0.9,0,1.4,0.4,2.4-0.2c0.8-0.5,1.4-0.3,2.2,0c0.6,0.3,2.8-0.4,2.8-0.4
			c-0.4-0.3-4.1-2.6-10-1.3c-1.9,0.3-3.4,0.7-4.7,1.3c0.4-0.5,0.7-1.1,1.4-1.3c0.9-0.3,2-0.2,2.7-1.1c0.5-0.8,1.2-0.7,2.2-0.6
			c0.7,0.1,2.5-1.3,2.5-1.3c-0.5-0.2-4.3-1.6-9.4,1.6c-0.8,0.4-0.8,0.4-1.5,0.9l0,0c0-0.8,1.6-1.9,2-3.1c0.4-1,1.2-2.1,1.2-2.1
			c-2.2-0.5-4.7,0.9-6.1,5.3c-1.5-4.4-4.1-5.9-6.1-5.3c0,0,0.9,0.9,1.2,2.1c0.3,1.1,2.1,2.4,2,3.1l0,0c-0.6-0.4-0.6-0.4-1.5-0.9
			c-5.1-3-8.9-1.7-9.4-1.6c0,0,1.8,1.4,2.5,1.3c1-0.1,1.6-0.2,2.2,0.6c0.7,0.9,1.7,0.8,2.7,1.1c0.7,0.2,0.9,0.8,1.4,1.3
			c-1.5-0.5-2.9-0.9-4.7-1.3c-5.9-1.3-9.6,1-10,1.3c0,0,2.2,0.7,2.8,0.4c0.9-0.3,1.5-0.5,2.2,0c1,0.6,1.4,0.2,2.4,0.2
			c0.8,0,1.6,0,2.2,0.3c1.7,1,2.6-0.3,4.3,1.4c-2.8-0.3-6.4-0.6-8.5-0.6c-9,0-10.6,4.1-11,4.5c0,0,2.2,0.3,4.3-0.7
			c1-0.5,1.7-1,2.8-0.6c1.4,0.5,1.8-0.3,3-0.5c0.9-0.2,1.4-0.1,2.2,0.3c2.2,0.9,2.8-1.8,5,0.1c0.4,0.3,1.6,0.4,2.2,0.4
			c-3.2,0.1-8,0.3-10.4,0.5c-8.7,0.8-11.7,5.9-12.2,6.5c0,0,3.3,0.1,4.1-0.6c1.1-0.9,1.8-1.5,3.1-1.1c1.6,0.5,2.1-0.4,3.5-0.9
			c1-0.3,2.3-0.4,3.3-0.2c2.8,0.8,2.3-2.3,5.5-0.6c0.8,0.4,2.4-1,3.9-1.4h0.1c-0.3,0.1-0.5,0.3-0.9,0.5c-1.4,0.9-2.6,1.4-3.5,2.8
			c-0.2,0.3-1.2,1.6-1.2,1.9c0.3-0.5,1.2-0.7,1.7-0.8c0.6-0.1,1-0.2,1.6-0.3c0.6-0.3,0.9-0.9,1.5-1.1c0.5-0.3,1-0.3,1.6-0.4
			c0.6-0.1,0.9-0.6,1.3-1c0.5-0.5,0.8-0.6,1.5-0.7c0.6-0.1,1.4-0.6,1.6-1.2l0,0c0.2,0.6,0.9,1.1,1.6,1.2c0.7,0.1,0.9,0.2,1.5,0.7
			c0.3,0.4,0.7,0.9,1.3,1c0.6,0.1,1.1,0.2,1.6,0.4c0.6,0.3,0.9,0.9,1.5,1.1c0.5,0.3,0.9,0.3,1.6,0.3c0.5,0.1,1.4,0.3,1.7,0.8
			c0-0.4-1-1.6-1.2-1.9c-0.9-1.6-1.4-1.6-2.8-2.6c-0.3-0.3-0.6-0.3-0.9-0.5h0.1c1.5,0.3,2.4,1.5,3.2,1c3.1-1.6,2.7,1.5,5.5,0.6
			c0.9-0.3,2.2-0.2,3.3,0.2c1.4,0.4,1.8,1.3,3.5,0.9c1.3-0.3,2,0.2,3.1,1.1c0.8,0.7,4.1,0.6,4.1,0.6
			C335.6,73.9,332.6,68.8,323.9,68.1z M319.2,86.5l-0.9-0.8c-0.4-0.3-0.9-0.7-1.1-0.9l-0.1-0.1c-0.1-0.1-0.3-0.2-0.6-0.2
			c-0.7,0.1-2,0.1-2.8,0.1c-0.8-0.1-1,0.2-1.6,0.6c-0.5,0.4-1.6,1.2-1.7,1.3c0,0,0.2,0.2,0.5,0.2c0.3,0,0.7-0.5,0.9-0.7
			c0.2-0.2,0.3-0.2,0.2,0.1c-0.1,0.3-0.7,0.8-1,1.1c0.6,0.1,1.4-0.1,1.8-0.2c0.3-0.3,0.5-0.7,0.4-0.9c-0.1,0-0.2-0.2-0.2-0.3
			c0.1-0.2,0.4-0.2,0.5-0.1s0.1,0.3,0.3,0.5c0.3,0.1,0.5-0.3,0.7-0.4c0.6-0.1,0.8-0.1,1.1-0.2c0.3,0,1,0.8,1,0.8
			c0.1,0.1,0.8,0.9,1.2,1.6c0,0,1.7-0.3,2.6-0.2C320.2,87.2,319.8,86.9,319.2,86.5z M340.5,88.2c-0.1-1.4-4.9-1.8-5.1-4.7
			c-0.1-0.6,0.1-1,0.4-1.4c-0.2-0.2-0.4-0.3-0.8-0.3c-0.8,0-1.9,0.9-1.9,2.2c0.1,2.6,3.4,7.8,3.5,12.9c0,1.3-0.8,2.3-1.4,2.8
			c0.4,0.1,1.2,0,1.5-0.3c-0.3,1.6-2.2,1.4-2.7,0.8c-0.1,0-0.2,0-0.2,0c-0.2,0-0.2,0-0.3,0c0.3,0.6,0.7,1.2,1.4,1.1
			c-1.4,1.1-2.9-0.4-2.8-2c-0.4-0.5-1.5-1.3-1.6-1.7c-0.2-0.3-0.4-0.2-0.3,0.3c0.1,1.3-0.6,2.1-0.6,3c0,0.9,0.9,1.8,1.3,1.8
			s0.5-0.3,0.8-0.3s0.2,0.3,0.2,1c0,0.4,0.1,2.4,0.3,3.5l0.1,1.3c0,0.3,0,0.5,0.1,0.7c0,0.9-0.2,1.2-0.5,1.4c0-0.1-0.3-0.3-0.6-0.3
			c-0.3,0-0.4,0.2-0.4,0.3c0,0.3,0.4,0.3,0.5,0.9c0,0.6-1.3,1.3-2.1,1.2c0.1-0.3,0.3-1.2,0.5-1.9c-0.3,0.2-0.5,0.5-0.6,1.1
			c-0.2,0.8-0.5,0.8-1.1,0.8c0.3-0.3,1.1-2.2,1.7-2.8c0.4-0.3,0.6-0.3,0.9-0.9c0.3-0.5,0-1.4,0-1.4c0-0.7-0.2-2.3-0.2-3
			c-0.1-1-0.6-1-0.9-1c-0.4,0-1.4-0.5-2.2-1.2c0,0-0.8-0.7-1.3-1.1c-0.4-0.4-0.9-1.5-1.1-2.2l0,0c-0.2-0.8-0.4-1.6-0.2-2.8
			c-0.5,1-0.4,1.9-0.4,2.9c-1.3,0.1-2.8,0-2.8,0c0.5,0.5,1.1,2.4,1.4,2.7c0.3,0.2,0.3,0.6-0.3,0.9c-0.5,0.3-3.3,2.6-3.3,2.6
			c-0.5,0.3-0.6,0.1-0.9-0.2c-0.3-0.3-0.4-0.3-0.8-0.1c-0.3,0.3,0.2,0.4,0.2,0.7c0,0.3-0.4,1.2-2.4,1.2l0.5-0.9
			c0.2-0.3,0.2-0.5,0.1-0.5c-0.1,0-0.3,0.3-0.4,0.5l-0.6,0.8c-0.3,0.1-0.6-0.1-0.6-0.1c0.8-0.9,1.2-1.4,1.6-1.9c0.4-0.5,1.1-0.8,2-1
			c1-0.3,2.5-1,2.5-2.2c0-1.3-2.3-2.4-2.3-4.2v-0.2c0-1,2.6-2.2,5.5-2.4c0.3-0.1,0.3,0,0.7-0.2c-1.4-1.5-2.2-1.5-2.7-2
			c0,0-0.4-0.6-0.6-1c-0.1-0.3-0.2-0.5-0.2-0.8c0.5,0,1,0.1,1.5,0.1c0,0,0.5,0,0.6,0c0.3,0,0.6-0.3,1-0.6c0.3-0.3,0.8-1.1,0.9-1.7
			c-0.3,0.6-0.8,1.1-1.2,1.6c-0.4,0.3-0.5,0.3-0.9,0.3c-0.5,0-3.5-0.1-4.7-0.2l-1.1-0.2c-0.5-0.1-0.9-0.3-1.1-0.1
			c-0.1,0.1-0.3,0.3,0,0.6c0.2,0.3,0.3,0.7,0.3,0.7c0.3,0,0.7,0.1,0.7,0.4c0.1,0.3-0.2,0.3-0.3,0.5c-0.1,0.2,0.1,0.3,0.3,0.3
			c0.2,0,0.3-0.2,0.3-0.3c0.2-0.2,0.6-0.2,1,0c0.3,0.3,0.9,0.9,1,1.6c-0.5-0.2-1.2-0.4-1.5-0.4c-0.3,0-0.2,0.1,0,0.2s0.9,0.3,1,0.5
			c0.3,0.3,0.2,0.7,0.2,0.7c-0.1-0.2-1.4-0.9-2-1.1c-0.6-0.3-0.9-0.3-1.3-1.1c-0.3-0.8-0.6-1.5-0.9-2.2c-0.3-0.4-0.2-0.6-0.1-0.8
			c0.1-0.2,0.3-0.3,0.3-0.4c0.3-0.4,0.3-0.3,0.7-0.3c0.3,0,0.7,0,1,0l0.5-0.2c0.9-0.3,3.3-0.5,4.6-0.5c0.2-0.5,0.5-1.1,0.9-1.6
			c-0.5,0.2-1,0.3-1.3,1h-0.3c0.1-1.1,0.7-2.2,1.4-3.2c0,0,0.1-0.2,1.3-1.2c1-1,2.8-1.2,2.8-2.8c0-0.3-0.2-0.9-0.5-1.2
			c0,0,0.3,0.4,0.3,0.9c-0.1,0.9-1.5,1.6-1.6,1.6c-0.7,0.3-0.8,0.1-1.4,0.3c-0.9,0.4-1.4,1.2-2.1,1.1c-0.3,0-0.3-0.2-0.3-0.3
			c-0.3-0.1-0.3-0.2-0.4-0.3c0-0.2,0.3-0.2,0.7-0.5c0.3-0.3,1-0.4,0.9-0.8c-0.3-0.3-1,0.3-1.6,0.7c-0.2,0.1-0.2,0.1-0.4,0.1
			c-0.1,0-0.7,0.1-0.4-0.8c0.1-0.3-0.1-0.9,0.2-1.1c0.1-0.2,0.2-0.3,0.3-0.3c0.1-0.1,0.3-0.2,1.3-0.9c1.3-0.9,0.4-1.6,2.3-2.6
			l0.3-0.2c-0.2-0.3-0.1-0.7,0-1c0.1-0.3-0.1-1-0.1-1c0.9,0.2,1.6,1.7,1.6,1.7c0.2-0.4,1.6-0.3,1.2-1.6c1,0.3,1,1.8,1,1.8
			c1.4-0.8,1.8-0.2,2.3-0.6c0,0.5-0.7,1.7-1.2,1.8c2.2,0.6,1.7,2.2,3,2.4c-0.2,0.3-0.5,0.3-0.9,0.2c1.5,2.1-0.1,2.9,0.9,3.9
			c-0.4,0.1-0.9-0.3-1.4-0.9c0.4,1.7-0.3,2.7,0,3.4c-0.4,0.2-0.9-0.2-1-0.9c0.4,1.8-0.3,2.8-0.2,3.5c-0.5,0.1-0.8-0.4-0.8-1.1
			c0,0-0.3,1.9-0.3,2.8c0,1,0.6,1.7,1.2,2.5c0.3,0.4,0.7,0.9,1,1.4c0.5,0.9,0.9,1.6,1.5,2.3c0.6,0.8,2.2,2.4,2.9,2.3
			c0.9,0,1.6-0.9,1.6-2c-0.2-4.8-3.3-9.9-3.5-13c-0.1-2,1.7-3.1,2.7-3.1c0.7,0,1.1,0.3,1.6,0.7c0.1,0,0.3,0,0.3,0
			c2.2,0,1.3,2.6,3.1,2.8c-0.8,0.3-2.2,0.4-2.8-1C337.4,86.3,341.1,85,340.5,88.2z M320.3,80.7c0-0.2-0.2-0.3-0.3-0.2
			c-0.2,0-0.3,0.1-0.3,0.2c0,0.1,0.2,0,0.3,0.1c0.1,0.1,0.1,0.3,0.3,0.2C320.2,80.9,320.3,80.7,320.3,80.7z M323.2,78.2
			c-0.7-0.3-1.2,0.2-1.2,0.9c0.1-0.1,0.1-0.1,0.3-0.2C322.5,78.9,323.3,78.9,323.2,78.2z M324.2,75.8c0,0-0.2-0.4-0.3-0.6
			c0,0,0.1,0.3,0.1,0.4c0,0.1,0,0.2,0,0.3C324.1,75.8,324.2,75.8,324.2,75.8z M324,106.3c-0.5,0-0.9,0.4-0.9,0.9
			c0,0.5,0.4,0.9,0.9,0.9s0.9-0.4,0.9-0.9C324.9,106.7,324.5,106.3,324,106.3z M310,95.6L310,95.6l-1.9,1.8l2,1.9l0,0l0,0
			C310.4,98.2,310.4,96.9,310,95.6L310,95.6z M309.8,81.4L309.8,81.4L309.8,81.4l-1.7,1.6l1.7,1.6l0,0l0,0
			C310.1,83.6,310.2,82.6,309.8,81.4z M309.9,88.5L309.9,88.5l-1.8,1.7l1.8,1.7l0,0l0,0C310.4,90.7,310.2,89.8,309.9,88.5
			L309.9,88.5z M307.6,76.5L307.6,76.5L307.6,76.5l-2.2,2.2c-0.3,0.9-0.3,1.1,0,1.9l2.2,2.2l0,0l0,0l2.2-2.2c0.2-0.7,0.2-0.9,0-1.9
			L307.6,76.5z M309.8,74.4L309.8,74.4l-1.7,1.6l1.7,1.6l0,0l0,0C310.1,76.3,310.3,76.3,309.8,74.4L309.8,74.4z M307.6,111.4
			c0.9-0.7,2-1.2,3-1.6c-0.1-0.7-0.1-1.4-0.2-2.2l-2.9-2.8l0,0l0,0l-2.9,2.8c-0.1,0.8-0.1,1.5-0.2,2.1
			C305.6,110.2,306.6,110.7,307.6,111.4z M310.2,102.5L310.2,102.5l-2.2,2l2.3,2.2l0,0l0,0C310.8,105.6,310.8,104,310.2,102.5z
			 M305.1,101.6l2.5,2.4l0,0l0,0l2.5-2.4l0.1-0.1l0,0l0,0c0.2-0.4,0.2-0.8-0.1-1.2l-2.5-2.4l0,0l0,0l-2.5,2.4
			C304.8,100.7,304.8,101.1,305.1,101.6L305.1,101.6L305.1,101.6L305.1,101.6z M307.6,89.8L307.6,89.8L307.6,89.8l2.2-2.2
			c0.3-0.6,0.3-1,0-1.8l0,0l0,0l-0.1-0.1l-2.2-2.1l0,0l0,0l-2.2,2.1l-0.1,0.1l0,0l0,0c-0.3,0.8-0.3,1.2,0,1.8L307.6,89.8z
			 M305.1,99.3L305.1,99.3l2-1.9l-1.9-1.8l0,0l0,0C304.7,96.9,304.7,98.2,305.1,99.3L305.1,99.3z M305.2,94.6l2.4,2.3l0,0l0,0
			l2.4-2.3c0.2-0.4,0.3-1,0-1.6l-2.3-2.2l0,0l0,0l-2.3,2.2C305,93.6,305,94.2,305.2,94.6z M305.4,84.8L305.4,84.8L305.4,84.8
			l1.7-1.6l-1.7-1.6l0,0l0,0C305,82.6,305.1,83.6,305.4,84.8z M305.3,92L305.3,92l1.8-1.7l-1.8-1.7l0,0l0,0
			C305,89.8,304.7,90.7,305.3,92L305.3,92z M305.4,77.6L305.4,77.6l1.7-1.6l-1.7-1.6l0,0l0,0C304.9,76.3,305.1,76.3,305.4,77.6
			L305.4,77.6z M309.1,71.8c-0.6-0.1-1.3-0.3-1.5-0.9c0,0-0.1-0.2-0.1-0.1c-0.2,0.6-0.9,1-1.5,1.1c-0.4,0.1-0.7,0.1-0.9,0.3
			c0,0.4,0,0.5,0.2,1.3l2.2,2.2l0,0l0,0l2.2-2.2c0.2-0.9,0.3-0.9,0.2-1.5C309.8,71.8,309.5,71.8,309.1,71.8z M304.7,106.7
			L304.7,106.7l2.3-2.2l-2.1-2l-0.1-0.1C304.4,104,304.4,105.6,304.7,106.7L304.7,106.7z M307.6,119L307.6,119
			c-7.4-5.7-14.8,1.7-22.2,2.1c1.4,1.4,2.8,2.7,4.3,3.7c6-1.9,11.8-5.8,17.8-1.2l0,0c6-4.6,11.8-0.7,17.8,1.2c1.6-1.1,3-2.3,4.3-3.7
			C322.3,120.8,315,113.3,307.6,119z M307.6,125.5L307.6,125.5L307.6,125.5c-5.3-4.1-10.6-1.4-16,0.6c0.9,0.6,6.9,4.4,16,4.7l0,0
			l0,0l0,0c9.1-0.3,14.9-4.1,16-4.7C318.2,124.2,312.9,121.5,307.6,125.5z M331.6,119.3L331.6,119.3L331.6,119.3
			c1.6-1.9,3-3.9,4.2-6l0,0c-1.6,1-3.6,1.4-5.5,1.4c-2.8,0-5.5-1-8.3-2.2c-2.8-1-5.5-2.2-8.3-2.2c-2.2,0-4.3,0.8-6,2.1l0,0l0,0
			c-1.8-1.3-4-2.1-6-2.1c-2.8,0-5.6,1.1-8.3,2.2c-2.7,1-5.5,2.2-8.3,2.2c-1.9,0-3.9-0.3-5.5-1.4l0,0c1.2,2.2,2.6,4.1,4.2,6l0,0l0,0
			c0.4,0.1,0.9,0.1,1.3,0.1c2.8,0,5.6-1.1,8.3-2.2c2.7-1,5.5-2.2,8.3-2.2c2.2,0,4.1,0.6,5.9,2l0.3,0.2l0.3-0.2c1.8-1.3,3.7-2,5.8-2
			c2.8,0,5.5,1,8.3,2.2c2.8,1,5.5,2.2,8.3,2.2C330.7,119.4,331.1,119.4,331.6,119.3z M294.6,87.6c0.9-0.1,2.6,0.2,2.6,0.2
			c0.4-0.6,1.1-1.5,1.2-1.6c0,0,0.7-0.8,1-0.8c0.3,0,0.5,0.1,1.1,0.2c0.2,0.3,0.3,0.5,0.7,0.4c0.3-0.1,0.3-0.3,0.3-0.5
			c0.1-0.1,0.4-0.1,0.5,0.1c0.1,0.2,0,0.3-0.2,0.3c0,0.3,0.2,0.6,0.4,0.9c0.4,0.2,1.2,0.3,1.8,0.2c-0.4-0.3-0.9-0.9-1-1.1
			c-0.1-0.3,0-0.3,0.2-0.1s0.5,0.7,0.9,0.7c0.3,0,0.5-0.2,0.5-0.2c-0.2-0.1-1.2-0.9-1.7-1.3c-0.4-0.4-0.8-0.7-1.6-0.6
			s-2.1,0-2.8-0.1c-0.3,0-0.5,0.1-0.6,0.2l-0.1,0.1c-0.3,0.3-0.8,0.7-1.1,0.9l-0.9,0.8C295.4,86.9,295,87.2,294.6,87.6z M278.1,83.5
			c-0.6,1.5-2,1.4-2.8,1c1.8-0.2,0.8-2.8,3.1-2.8c0.1,0,0.3,0,0.3,0c0.4-0.4,0.9-0.7,1.6-0.7c0.9,0,2.8,1.2,2.7,3.1
			c-0.1,3.1-3.3,8.2-3.5,13c0,1.1,0.7,2,1.6,2c0.8,0,2.3-1.6,2.9-2.3c0.7-0.8,1-1.5,1.5-2.3c0.3-0.5,0.7-0.9,1-1.4
			c0.6-0.8,1.2-1.5,1.2-2.5c0-0.9-0.3-2.8-0.3-2.8c-0.1,0.7-0.3,1.2-0.8,1.1c0.2-0.8-0.6-1.7-0.2-3.5c-0.2,0.7-0.5,1-1,0.9
			c0.3-0.7-0.8-1.6-0.3-3.4c-0.4,0.7-0.8,1-1.1,0.9c1.1-0.9-0.4-1.8,0.9-3.9c-0.4,0.2-0.8,0.1-0.9-0.2c1.3-0.2,0.8-1.8,3-2.4
			c-0.5-0.1-1.2-1.3-1.2-1.8c0.5,0.4,1-0.3,2.3,0.6c0,0-0.1-1.5,1-1.8c-0.4,1.3,1,1.1,1.2,1.6c0,0,0.7-1.6,1.6-1.7
			c0,0-0.2,0.8-0.1,1c0.1,0.3,0.2,0.7,0,1l0.3,0.3c1.8,0.9,1.1,1.6,2.4,2.5c1.1,0.8,1.2,0.9,1.3,0.9c0.1,0,0.2,0.1,0.3,0.3
			c0.3,0.3,0.1,0.9,0.2,1.1c0.3,0.9-0.3,0.8-0.4,0.8c-0.2,0-0.3,0-0.4-0.1c-0.6-0.3-1.4-1-1.6-0.7c-0.3,0.3,0.4,0.4,0.9,0.8
			c0.3,0.3,0.6,0.4,0.6,0.6c0,0.1-0.1,0.1-0.3,0.2c0,0-0.1,0.2-0.3,0.3c-0.6,0.1-1-0.7-2.1-1.1c-0.6-0.3-0.8,0-1.5-0.3
			c-0.2-0.1-1.5-0.7-1.6-1.6c0-0.5,0.3-0.9,0.3-0.9c-0.4,0.3-0.5,0.9-0.5,1.2c-0.1,1.6,1.6,1.7,2.8,2.8c1.2,1,1.3,1.2,1.3,1.2
			c0.7,1,1.3,2.1,1.4,3.2h-0.3c-0.3-0.6-0.8-0.8-1.3-0.9c0.4,0.3,0.8,0.9,0.9,1.4c1.3,0,3.6,0.2,4.6,0.5l0.5,0.2c0.3,0,0.9,0,1,0
			c0.3,0,0.4-0.1,0.7,0.3c0.1,0.2,0.2,0.3,0.3,0.4c0.1,0.2,0.2,0.3-0.1,0.8c-0.4,0.6-0.6,1.4-0.9,2.2c-0.3,0.8-0.7,0.9-1.3,1.1
			c-0.6,0.3-1.8,0.9-2,1.1c0,0-0.2-0.4,0.2-0.7c0.2-0.2,0.8-0.4,1-0.5c0.2-0.1,0.3-0.2,0-0.2s-0.9,0.3-1.5,0.4
			c0.2-0.6,0.7-1.2,1-1.6c0.4-0.1,0.9-0.1,1,0c0,0.1,0.1,0.3,0.3,0.3c0.2,0,0.3-0.2,0.3-0.3c-0.1-0.2-0.3-0.3-0.3-0.5
			c0.1-0.3,0.4-0.3,0.7-0.4c0,0.1,0.1-0.3,0.3-0.7c0.2-0.3,0.1-0.5,0-0.6c-0.2-0.2-0.5-0.1-1.1,0.1l-1.1,0.2
			c-1.3,0.1-4.3,0.2-4.7,0.2c-0.5,0-0.6,0.1-0.9-0.3c-0.4-0.3-1-0.9-1.2-1.6c0.1,0.6,0.5,1.4,0.9,1.7c0.4,0.3,0.8,0.6,1,0.6
			c0.1,0,0.6,0,0.6,0c0.4,0,0.9,0,1.5-0.1c-0.1,0.3-0.1,0.5-0.2,0.8c-0.2,0.4-0.6,1-0.6,1c-0.4,0.5-1.4,0.6-2.7,2
			c0.3,0.1,0.3,0,0.7,0.2c2.9,0.2,5.6,1.4,5.5,2.4v0.2c-0.1,1.8-2.3,2.8-2.3,4.2c0,1.1,1.5,1.8,2.5,2.2c0.9,0.3,1.6,0.5,2,1
			c0.4,0.5,0.9,0.9,1.6,1.9c0,0-0.3,0.2-0.6,0.1l-0.6-0.8c-0.2-0.3-0.3-0.5-0.4-0.5c-0.1,0,0,0.2,0.1,0.5l0.5,0.9
			c-1.9,0-2.4-0.9-2.4-1.2c0-0.3,0.5-0.4,0.2-0.7c-0.3-0.3-0.5-0.2-0.8,0.1s-0.3,0.4-0.9,0.2c0,0-2.8-2.2-3.3-2.6
			c-0.5-0.3-0.5-0.7-0.3-0.9c0.3-0.3,0.9-2.2,1.4-2.7c0,0-1.5,0.1-2.8,0c0-0.9-0.1-1.9-0.6-2.8c0.3,1.3,0,2-0.2,2.8l0,0
			c-0.1,0.7-0.7,1.7-1.1,2.2c-0.5,0.5-1.3,1.1-1.3,1.1c-0.9,0.8-1.8,1.2-2.2,1.2c-0.3,0-0.9,0-0.9,1c0,0.7-0.2,2.3-0.2,3
			c0,0-0.2,0.9,0,1.4c0.3,0.5,0.4,0.5,0.9,0.9c0.6,0.4,1.5,2.4,1.7,2.8c-0.6,0-0.9,0.1-1.1-0.8c-0.1-0.6-0.4-1-0.6-1.1
			c0.3,0.6,0.3,1.6,0.5,1.9c-0.8,0.2-2.1-0.6-2.1-1.2s0.4-0.5,0.5-0.9c0-0.2-0.2-0.3-0.4-0.3c-0.3,0-0.6,0.3-0.6,0.3
			c-0.3-0.2-0.6-0.5-0.5-1.4c0-0.3,0-0.4,0.1-0.7l0.1-1.3c0.1-1,0.3-3.1,0.3-3.5c0-0.7,0-0.9,0.2-1c0.3-0.1,0.4,0.3,0.8,0.3
			c0.3,0,1.3-0.9,1.3-1.8c0-0.9-0.7-1.7-0.6-3c0-0.4-0.2-0.6-0.3-0.3c-0.2,0.4-1.2,1.2-1.6,1.7c0.2,1.6-1.4,3.2-2.8,2
			c0.7,0.1,1-0.5,1.4-1.1c-0.1,0-0.1,0-0.3,0c-0.1,0-0.2,0-0.2,0c-0.5,0.6-2.3,0.8-2.7-0.8c0.3,0.3,1,0.3,1.5,0.3
			c-0.6-0.4-1.4-1.5-1.4-2.8c0.2-5.1,3.5-10.4,3.5-12.9c0.1-1.4-1.1-2.2-1.9-2.2c-0.3,0-0.5,0.1-0.8,0.3c0.3,0.3,0.4,0.8,0.4,1.4
			c-0.3,2.8-5,3.3-5.1,4.7C274.1,85,277.8,86.3,278.1,83.5z M295.2,80.9c0.2,0,0.2-0.2,0.3-0.2c0.1-0.1,0.3,0.1,0.3-0.1
			c0-0.1-0.2-0.2-0.3-0.2c-0.2,0-0.3,0-0.3,0.2C294.9,80.7,295,80.9,295.2,80.9z M293,78.9c0.2,0.2,0.2,0.1,0.3,0.2
			c-0.1-0.7-0.6-1.2-1.2-0.9C292,78.9,292.7,78.9,293,78.9z M291.3,75.9c0-0.1,0-0.2,0-0.3c0-0.1,0.1-0.4,0.1-0.4
			c-0.2,0.2-0.3,0.6-0.3,0.6S291.1,75.8,291.3,75.9z M290.3,107.2c0,0.5,0.4,0.9,0.9,0.9s0.9-0.4,0.9-0.9c0-0.5-0.4-0.9-0.9-0.9
			S290.3,106.7,290.3,107.2z M312.5,5.2c0,0.5-0.4,0.9-0.9,0.9c-0.3,0-0.5-0.1-0.7-0.3v1.6L309,6h-0.6v1.2c1.5,0.3,2.5,1.6,2.5,3.1
			c0,1.8-1.5,3.2-3.2,3.2c-1.8,0-3.2-1.5-3.2-3.2c0-1.6,1.3-3,2.8-3.2c-0.3,0-0.5,0.1-0.5,0.1V6H306l-2,1.4V5.8
			C303.9,6,303.6,6,303.4,6c-0.5,0-0.9-0.4-0.9-0.9s0.4-0.9,0.9-0.9c0.3,0,0.5,0.1,0.7,0.3V3l2,1.4h0.8V3.5l-1.5-2h1.7
			c-0.3-0.2-0.3-0.4-0.3-0.7c0-0.5,0.4-0.9,0.9-0.9c0.4,0,0.9,0.4,0.9,0.9c0,0.3-0.2,0.6-0.3,0.7h1.6l-1.4,2v0.9h0.6l2-1.4v1.6
			c0.2-0.2,0.4-0.3,0.7-0.3C312.1,4.3,312.5,4.7,312.5,5.2z M307.2,0.8c0,0.3,0.2,0.4,0.4,0.4S308,1,308,0.8s-0.2-0.4-0.4-0.4
			C307.3,0.3,307.2,0.5,307.2,0.8z M303.8,5.2c0-0.3-0.2-0.4-0.4-0.4c-0.3,0-0.4,0.2-0.4,0.4c0,0.3,0.2,0.4,0.4,0.4
			C303.6,5.6,303.8,5.4,303.8,5.2z M307.3,7.1L307.3,7.1L307.3,7.1z M308,9.9V8.3h-0.9v1.6h-2v0.9h2h0.9h2V9.9
			C310,9.9,308,9.9,308,9.9z M312.1,5.2c0-0.3-0.2-0.4-0.4-0.4s-0.4,0.2-0.4,0.4c0,0.3,0.2,0.4,0.4,0.4
			C311.8,5.6,312.1,5.4,312.1,5.2z M330.3,20.8c0,0.9-0.7,1.5-1.5,1.5c-0.5,0-1-0.3-1.3-0.7c-0.1,0.6-0.3,1.3-0.5,1.9
			c0.2-0.1,0.4-0.2,0.6-0.2c0.7,0,1.3,0.6,1.3,1.3c0,0.7-0.6,1.3-1.3,1.3c-0.5,0-1-0.3-1.2-0.8c-0.2,0.5-0.4,1-0.7,1.6
			c0.1,0,0.3-0.1,0.3-0.1c0.6,0,1.1,0.5,1.1,1.1s-0.5,1.1-1.1,1.1c-0.5,0-0.9-0.3-1.1-0.8l0,0l-1.9,7.2h-0.1
			c-5-1.6-10.2-2.4-15.4-2.4s-10.4,0.8-15.4,2.4l0,0l-1.9-7.2l0,0c-0.2,0.4-0.6,0.8-1.1,0.8c-0.6,0-1.1-0.5-1.1-1.1
			c0-0.6,0.5-1.1,1.1-1.1c0.1,0,0.3,0,0.3,0.1c-0.3-0.5-0.4-1-0.7-1.6c-0.2,0.4-0.7,0.8-1.2,0.8c-0.7,0-1.3-0.6-1.3-1.3
			c0-0.7,0.6-1.3,1.3-1.3c0.3,0,0.4,0.1,0.6,0.2c-0.2-0.7-0.3-1.3-0.5-1.9c-0.3,0.4-0.8,0.7-1.3,0.7c-0.9,0-1.5-0.7-1.5-1.5
			c0-0.9,0.7-1.5,1.5-1.5c0.4,0,0.8,0.2,1,0.4c0-0.3,0-0.8,0-1.1s0-0.8,0.1-1.1c-0.3,0.3-0.7,0.4-1.1,0.4c-0.9,0-1.6-0.8-1.6-1.6
			c0-0.9,0.8-1.6,1.6-1.6c0.7,0,1.3,0.4,1.6,1c0.2-0.6,0.4-1.1,0.8-1.6c-0.2,0.1-0.3,0.1-0.5,0.1c-1,0-1.9-0.9-1.9-1.9
			s0.9-1.9,1.9-1.9s1.9,0.9,1.9,1.9c0,0.1,0,0.2,0,0.3c0.1-0.1,0.3-0.2,0.4-0.3c0.4-0.3,0.9-0.6,1.4-0.8c-0.6-0.3-1-0.9-1-1.6
			c0-0.9,0.8-1.7,1.7-1.7c0.9,0,1.7,0.8,1.7,1.7c0,0.4-0.2,0.8-0.4,1.1c0.7-0.1,1.5-0.1,2.2,0c-0.3-0.3-0.5-0.7-0.5-1.2
			c0-0.9,0.8-1.7,1.7-1.7c0.9,0,1.7,0.8,1.7,1.7c0,0.8-0.4,1.4-1.1,1.6c0.1,0,0.2,0.1,0.3,0.1c0.5,0.2,1,0.3,1.6,0.6
			c-0.1-0.2-0.1-0.3-0.1-0.5c0-0.8,0.7-1.5,1.5-1.5c0.8,0,1.5,0.7,1.5,1.5c0,0.7-0.5,1.3-1.2,1.5c0.4,0.3,0.9,0.6,1.4,0.9
			c0-0.1-0.1-0.3-0.1-0.3c0-0.7,0.6-1.3,1.3-1.3c0.7,0,1.3,0.6,1.3,1.3c0,0.7-0.6,1.3-1.3,1.3l0,0c0.7,0.5,1.4,1.1,2.1,1.8l-0.1-1.3
			c0-0.9,0.8-1.6,1.6-1.6l0,0l0,0c0.9,0,1.6,0.8,1.6,1.6l-0.1,1.3c0.7-0.7,1.4-1.3,2.1-1.8l0,0c-0.7,0-1.3-0.6-1.3-1.3
			c0-0.7,0.6-1.3,1.3-1.3c0.7,0,1.3,0.6,1.3,1.3c0,0.1,0,0.3-0.1,0.3c0.4-0.3,0.9-0.6,1.4-0.9c-0.7-0.2-1.2-0.8-1.2-1.5
			c0-0.8,0.7-1.5,1.5-1.5c0.8,0,1.5,0.7,1.5,1.5c0,0.2,0,0.3-0.1,0.5c0.5-0.3,1-0.4,1.6-0.6c0.1,0,0.2-0.1,0.3-0.1
			c-0.7-0.3-1.1-0.9-1.1-1.6c0-0.9,0.8-1.7,1.7-1.7s1.7,0.8,1.7,1.7c0,0.4-0.2,0.9-0.5,1.2c0.8-0.1,1.6-0.1,2.2,0
			c-0.3-0.3-0.4-0.7-0.4-1.1c0-0.9,0.8-1.7,1.7-1.7s1.7,0.8,1.7,1.7c0,0.7-0.4,1.3-1,1.6c0.5,0.2,0.9,0.4,1.4,0.8
			c0.2,0.1,0.3,0.2,0.4,0.3c0-0.1,0-0.2,0-0.3c0-1,0.9-1.9,1.9-1.9s1.9,0.9,1.9,1.9s-0.9,1.9-1.9,1.9c-0.2,0-0.3,0-0.5-0.1
			c0.3,0.5,0.6,1,0.8,1.6c0.3-0.6,0.9-1,1.6-1c0.9,0,1.6,0.8,1.6,1.6c0,0.9-0.8,1.6-1.6,1.6c-0.4,0-0.8-0.2-1.1-0.4
			c0.1,0.3,0.1,0.7,0.1,1.1c0,0.3,0,0.8,0,1.1c0.3-0.3,0.6-0.4,1-0.4C329.6,19.2,330.3,19.9,330.3,20.8z M327.8,16.2
			c0,0.5,0.4,0.9,0.9,0.9s0.9-0.4,0.9-0.9c0-0.5-0.4-0.9-0.9-0.9S327.8,15.7,327.8,16.2z M287.5,16.2c0-0.5-0.4-0.9-0.9-0.9
			s-0.9,0.4-0.9,0.9c0,0.5,0.4,0.9,0.9,0.9S287.5,16.7,287.5,16.2z M287.3,20.8c0-0.4-0.3-0.8-0.8-0.8c-0.4,0-0.8,0.3-0.8,0.8
			s0.3,0.8,0.8,0.8C287,21.6,287.3,21.2,287.3,20.8z M288.2,24.5c0-0.3-0.3-0.6-0.6-0.6c-0.3,0-0.6,0.3-0.6,0.6s0.3,0.6,0.6,0.6
			S288.2,24.8,288.2,24.5z M321.7,9.7c0,0.5,0.4,0.9,0.9,0.9s0.9-0.4,0.9-0.9s-0.4-0.9-0.9-0.9C322.2,8.8,321.7,9.2,321.7,9.7z
			 M317.9,10.8c0.6,0,1-0.4,1-1s-0.4-1-1-1c-0.6,0-1,0.4-1,1C316.9,10.3,317.3,10.8,317.9,10.8z M314.1,12.3c0.4,0,0.8-0.3,0.8-0.8
			c0-0.4-0.3-0.8-0.8-0.8c-0.4,0-0.8,0.3-0.8,0.8C313.4,12,313.7,12.3,314.1,12.3z M311.8,13.5c0-0.3-0.3-0.5-0.5-0.5
			c-0.3,0-0.5,0.3-0.5,0.5c0,0.3,0.3,0.5,0.5,0.5S311.8,13.8,311.8,13.5z M307.2,16.4c0,0.3,0.2,0.4,0.4,0.4s0.4-0.2,0.4-0.4
			c0-0.3-0.2-0.4-0.4-0.4C307.3,15.9,307.2,16.1,307.2,16.4z M306.8,19.1c0,0.4,0.3,0.8,0.8,0.8c0.4,0,0.8-0.3,0.8-0.8
			c0-0.4-0.3-0.8-0.8-0.8C307.2,18.4,306.8,18.7,306.8,19.1z M306.6,22.4c0,0.5,0.4,0.9,0.9,0.9s0.9-0.4,0.9-0.9s-0.4-0.9-0.9-0.9
			S306.6,21.9,306.6,22.4z M303.5,13.5c0,0.3,0.3,0.5,0.5,0.5c0.3,0,0.5-0.3,0.5-0.5c0-0.3-0.3-0.5-0.5-0.5
			C303.7,12.9,303.5,13.2,303.5,13.5z M300.3,11.6c0,0.4,0.3,0.8,0.8,0.8s0.8-0.3,0.8-0.8c0-0.4-0.3-0.8-0.8-0.8
			C300.7,10.7,300.3,11.1,300.3,11.6z M296.3,9.7c0,0.6,0.4,1,1,1c0.6,0,1-0.4,1-1s-0.4-1-1-1C296.7,8.7,296.3,9.1,296.3,9.7z
			 M292.6,10.8c0.5,0,0.9-0.4,0.9-0.9c0-0.5-0.4-0.9-0.9-0.9s-0.9,0.4-0.9,0.9C291.6,10.4,292,10.8,292.6,10.8z M289.5,12.2
			c0-0.7-0.5-1.2-1.2-1.2c-0.7,0-1.2,0.5-1.2,1.2c0,0.7,0.5,1.2,1.2,1.2C289,13.4,289.5,12.8,289.5,12.2z M289.6,27.6
			c0-0.3-0.2-0.4-0.4-0.4s-0.4,0.2-0.4,0.4s0.2,0.4,0.4,0.4C289.4,28.1,289.6,27.9,289.6,27.6z M293.8,31.1l-1.6-1.9l1.1,3
			L293.8,31.1z M299,29.9l-2.1-3.5l-0.8,4.1l1.9,1.6L299,29.9z M305.5,29.4l-1.7-3.6l-1.3,3.7l1.6,1.6L305.5,29.4z M312.7,29.6
			l-1.3-3.7l-1.7,3.6l1.4,1.8L312.7,29.6z M319.2,30.6l-0.8-4.1l-2.1,3.5l1,2.3L319.2,30.6z M323,29.2l-1.6,1.9l0.4,1.1L323,29.2z
			 M325.7,27.6c0,0.3,0.2,0.4,0.4,0.4c0.3,0,0.4-0.2,0.4-0.4s-0.2-0.4-0.4-0.4C325.9,27.2,325.7,27.3,325.7,27.6z M327,13.4
			c0.7,0,1.2-0.5,1.2-1.2S327.7,11,327,11c-0.7,0-1.2,0.5-1.2,1.2C325.8,12.8,326.3,13.4,327,13.4z M327,24.5c0,0.3,0.3,0.6,0.6,0.6
			c0.3,0,0.6-0.3,0.6-0.6s-0.3-0.6-0.6-0.6C327.3,24,327,24.2,327,24.5z M329.6,20.8c0-0.4-0.3-0.8-0.8-0.8c-0.4,0-0.8,0.3-0.8,0.8
			s0.3,0.8,0.8,0.8C329.2,21.6,329.6,21.2,329.6,20.8z M313.6,35.8c-0.4,0-0.8,0.3-0.8,0.8s0.3,0.8,0.8,0.8c0.4,0,0.8-0.3,0.8-0.8
			C314.3,36.1,314.1,35.8,313.6,35.8z M296.2,37c-0.4,0-0.8,0.3-0.8,0.8s0.3,0.8,0.8,0.8c0.4,0,0.8-0.3,0.8-0.8S296.6,37,296.2,37z
			 M307.6,35.5c-0.4,0-0.8,0.3-0.8,0.8s0.3,0.8,0.8,0.8c0.4,0,0.8-0.3,0.8-0.8S308,35.5,307.6,35.5z M301.6,35.8
			c-0.4,0-0.8,0.3-0.8,0.8s0.3,0.8,0.8,0.8s0.8-0.3,0.8-0.8S302.1,35.8,301.6,35.8z M319.1,37c-0.4,0-0.8,0.3-0.8,0.8
			s0.3,0.8,0.8,0.8c0.4,0,0.8-0.3,0.8-0.8C319.8,37.3,319.5,37,319.1,37z M322.8,36.3l-1.2,4.6l0,0c-0.1,0-0.2-0.1-0.3-0.1
			c-4.4-1.4-9-2.1-13.7-2.1c-4.7,0-9.4,0.7-13.9,2.2l0,0l-1.2-4.6l0,0c4.8-1.6,9.9-2.3,15.1-2.3C312.9,34,318.1,34.8,322.8,36.3z
			 M297.4,37.8c0-0.7-0.5-1.2-1.2-1.2c-0.7,0-1.2,0.5-1.2,1.2s0.5,1.2,1.2,1.2C296.9,38.9,297.4,38.4,297.4,37.8z M302.8,36.6
			c0-0.7-0.5-1.2-1.2-1.2c-0.7,0-1.2,0.5-1.2,1.2c0,0.7,0.5,1.2,1.2,1.2C302.2,37.7,302.8,37.2,302.8,36.6z M308.8,36.1
			c0-0.7-0.5-1.2-1.2-1.2c-0.7,0-1.2,0.5-1.2,1.2c0,0.7,0.5,1.2,1.2,1.2C308.3,37.3,308.8,36.8,308.8,36.1z M314.8,36.6
			c0-0.7-0.5-1.2-1.2-1.2c-0.7,0-1.2,0.5-1.2,1.2c0,0.7,0.5,1.2,1.2,1.2C314.2,37.7,314.8,37.2,314.8,36.6z M320.2,37.8
			c0-0.7-0.5-1.2-1.2-1.2c-0.7,0-1.2,0.5-1.2,1.2s0.5,1.2,1.2,1.2C319.7,38.9,320.2,38.4,320.2,37.8z M321.5,27.2l1.2-1
			c2.2-4.3,2.8-8.3,1.4-10.6c-0.8-1.2-2-1.9-3.5-1.9c-2.8,0-6.4,2-9.9,5.6l0.3,2.4l0.7-0.9l3.4,5.4l4.3-5.1L321.5,27.2z M293.8,27.2
			l2.2-6l4.3,5.1l3.4-5.4l0.7,0.9l0.3-2.4c-3.5-3.5-7.1-5.6-9.9-5.6c-1.6,0-2.8,0.6-3.5,1.9c-1.4,2.3-0.9,6.2,1.4,10.6L293.8,27.2z
			 M350.5,60.3c1.1,0.8,2.2,1.1,3.2,1.1c0.2,0,0.3,0,0.4,0l0,0l0,0c-1.6-2.2-1.7-5.4-0.1-7.6c0.9-1.1,2.1-1.9,3.5-2.2
			c1.3-0.3,2.8-0.2,4.3,0.3c2.8,0.7,5.3,2.5,6.9,5.1c1.5,2.3,2.2,5.1,1.9,8c0.3-1.4,0.5-2.7,0.3-4c-0.1-2.6-0.5-5.1-1.3-7.4
			c-0.6-1.8-1.5-3.5-2.5-5.2c-1.7-2.7-3.5-4-3.5-4c-2.5-2.8-8-4.1-14-5.4c-4-0.9-8.1-1.9-11.3-3.4c-4.6-2.1-6.8-4.7-6.6-7.8V28l0,0
			c-0.8,2.1-1.2,4.2-1.2,6.2c0,2.9,0.8,5.4,2.4,7.6c1.9,2.5,5.3,4.8,8.5,5.8c3.1,0.9,6.6,1,8.9,1c-4.1,3.3-3.5,6.6-2.8,8.3
			C348.1,58.1,349.2,59.4,350.5,60.3z M364.6,132.2C364.6,132.2,364.6,132.2,364.6,132.2c1.2-2.4,0.6-7.2,0.6-7.2v-0.1v0.1
			c-0.7,1.4-2.2,3.7-4.1,5.9c-2.7,3-4.5,3.9-5.6,4.1c-0.7,0.1-1.2,0-1.7-0.3c-0.7,1.7-1.4,4.7-0.4,6.8c0.4,1,1.3,1.8,2.4,2.2l0,0
			c0.3,0,0.5,0.1,0.8,0.1c0.3,0,0.8,0,1.1-0.1c4.2-0.8,9.1-5.4,13.2-12.9v-0.1h-0.1C368.7,131.3,365,132.6,364.6,132.2z M332.4,26.3
			c-0.7,2.2-0.2,4.2,1.6,6c0.8,0.8,1.8,1.6,3.2,2.2c0.3-0.6,0.8-1.1,1.6-1.5c1.5-0.7,4-1,6.9-0.9c2.6,0.2,5.2,0.7,6.6,1.4h0.1v-0.1
			c0,0-0.5-0.9-1.3-2.1c-0.7-1-1.8-2.4-3-3.2c2.2-1.1,7.4-2.2,7.5-2.2h0.1h-0.1c-4.3-1.9-8.4-3-12-3.4c-3.2-0.3-6,0.1-8.1,1
			C334.2,24.4,333.1,25.3,332.4,26.3L332.4,26.3z M377.3,71.4L377.3,71.4L377.3,71.4c-1.3,2.8-2.8,4.1-4.7,4.4
			c-1.7,0.2-3.6-0.6-5.6-1.5c-0.7-0.3-1.3-0.5-2-0.8l0,0c-1.4-0.5-2.8-0.9-4.3-0.8c1.5-0.6,3.1-0.2,4.7,0.4c0.7-0.7,2-2,3.1-3.7
			c0.5-0.8,0.9-1.6,1.4-2.4l0,0l0,0c0,0,0,0,0-0.1l0,0c0.8-3.5,0.3-7-1.5-9.8c-1.4-2.2-3.5-4-6-4.7c0.9,1.5,1.6,3.8,0.9,6.4
			c-0.5,2-1.7,3.9-3.6,5.5c-2.2,2-5.2,3.5-9,4.8l-0.2,0.1l0,0c0.5,1.1,1,2.3,1.5,3.5c2.1,5.5,3.2,11.3,3.5,17.3v0.1l0,0
			c1.2,0.6,2.1,2.2,2.4,4.2c0.3,2.2,0,4.9-0.9,7.5v0.1h0.1c3.4-1.1,5.4-3,6.2-5.4c0.5-1.7,0.4-3.8-0.3-6.3c1.9,2.5,3.7,5.8,4.7,8.9
			c1.3,3.8,1.7,7.3,1.1,10.3c0.9-0.4,2-1,3.1-2c2.2-2,3.6-4,4.1-6.3c0.4-2.1,0.1-4.1-0.3-6v-0.1c0,0,0,0,0-0.1l0,0
			c-0.5-1.7-1.7-4.1-3.7-7.1c-1.6-2.6-3.4-4.8-4.1-5.8c-0.1-0.2-0.3-0.3-0.3-0.3c1.6,0.9,3.1,1.3,4.5,1.3h0.1c1.3,0,2.5-0.4,3.5-1.2
			c1.1-0.9,1.9-2.3,2.2-4.1C378.2,75.7,378,73.6,377.3,71.4z M372.1,107.6c-1.7,1.6-3.4,2.2-4.7,2.6c-0.2,0.1-0.3,0.1-0.4,0.2
			c-1.3,0.4-2.4,0.3-3.3-0.3c-0.8-0.5-1.3-1.6-1.5-2.8c-0.2-1.3,0-2.8,0.6-4.2l0,0l0,0c-1.6,0.4-2.9,1.4-4,2.7
			c-1,1.3-1.6,2.8-1.6,4.3c-0.1,2.8,1.6,4.8,4.7,5.9c-4,1.5-7.2,3.4-9.5,5.7c-1.9,1.9-3.3,4-4.1,6.3c-1.4,3.9-0.5,7.1-0.5,7.2
			c0,0,0.2,0.9,0.9,2.2c1.2,2.2,2.9,4,4.2,5.2c0.3,0.3,0.6,0.4,0.9,0.6c-0.4-0.4-0.7-0.9-0.9-1.4c-0.4-1.1-0.6-2.5-0.3-4.1
			c0.2-1.1,0.5-2.2,0.9-3.2l0,0v-0.1c1-2.4,2.8-4.6,5.5-6.7c2.4-1.9,5.2-3.5,7.6-4.9c3.7-2.2,6.9-4,7.5-6c1.1-3.8,2.6-9.1,2.8-12.4
			c0.2-3.4,0.1-4.4-0.3-5.8C376.6,101.3,375.8,104.5,372.1,107.6z M333.2,148.7l0.2-0.1c0.2-0.1,0.3-0.3,0.4-0.5
			c0.1-0.3,0.1-0.4-0.1-0.7c-0.2-0.4-0.7-0.6-1.1-0.3l-0.3,0.2c-1.5,0.8-2.6,1.3-4,1.9l-0.2,0.1c-0.2,0.1-0.3,0.1-0.5,0.1
			c-0.2,0-0.3,0-0.4-0.1l0,0l0.6,2C329.6,150.4,331.4,149.7,333.2,148.7z M336.4,145.9L336.4,145.9L336.4,145.9
			C336.4,145.9,336.4,145.9,336.4,145.9L336.4,145.9C336.4,145.9,336.4,145.9,336.4,145.9L336.4,145.9c-0.4-0.7-0.3-1.5,0.3-1.8
			l0.3-0.2c1.2-0.8,2.2-1.6,3.5-2.6l0.2-0.2c0.2-0.2,0.3-0.3,0.3-0.5c0-0.3,0-0.4-0.2-0.6l0,0c-0.2-0.2-0.3-0.3-0.6-0.3
			c-0.3,0-0.4,0-0.6,0.2l-0.2,0.2l-1.8,1.6c-3.3,2.3-6.6,4.1-10,5.7l-0.3,0.1c-0.2,0.1-0.3,0.3-0.4,0.4c-0.1,0.2-0.1,0.4,0,0.6
			c0.1,0.2,0.3,0.3,0.4,0.4s0.4,0.1,0.6,0l0.2-0.1c1.4-0.6,2.6-1.1,4-1.9l0.3-0.2c0.6-0.3,1.4-0.1,1.7,0.5l0,0l0,0l0,0l0,0l0,0l0,0
			l0,0v0.1l3.6,7.8c0.3-0.2,0.5-0.3,0.9-0.4c0.7-0.3,1.4-0.8,2-1.1L336.4,145.9z M274.4,140L274.4,140c-0.2,0.3-0.2,0.4-0.2,0.6
			c0,0.3,0.2,0.4,0.3,0.6l0.2,0.2c1.3,1,2.3,1.8,3.5,2.6l0.3,0.2c0.6,0.4,0.7,1.2,0.3,1.7l0,0l0,0l0,0l0,0l0,0v0.1l-4.1,7.6
			c0.6,0.4,1.3,0.8,2,1.1c0.3,0.2,0.5,0.3,0.9,0.4l3.6-7.8v-0.1l0,0l0,0l0,0l0,0l0,0c0.3-0.6,1.1-0.9,1.7-0.5l0.3,0.2
			c1.4,0.8,2.6,1.3,4,1.9l0.2,0.1c0.2,0.1,0.4,0.1,0.6,0c0.2-0.1,0.3-0.3,0.4-0.4c0.1-0.2,0.1-0.4,0-0.6c-0.1-0.2-0.3-0.3-0.4-0.4
			l-0.3-0.1c-3.5-1.5-6.8-3.4-10-5.7l0,0l-1.8-1.5l-0.2-0.2c-0.2-0.2-0.4-0.2-0.6-0.2C274.7,139.7,274.6,139.8,274.4,140z
			 M278,146.4c-0.3,0.1-0.7,0-0.9-0.2l-0.2-0.2c-2.1-1.4-4.1-3-6.4-5.1c-0.8-0.7-1.2-1-1.8-1.7l-1.4,7l-6.8,1.2
			c4.4,4.2,8.8,7.2,11.1,9l0,0c0.3,0.2,0.9,0.2,1.1-0.2L278,146.4L278,146.4z M348,146.1l-1.4-7c-0.7,0.7-1.1,1-1.8,1.7
			c-2.3,2.2-4.4,3.7-6.4,5.1l-0.2,0.1c-0.3,0.2-0.6,0.3-0.9,0.2l0,0l5.3,9.7c0.3,0.3,0.7,0.4,1.1,0.2l0,0c2.4-1.6,6.8-4.7,11.1-9
			L348,146.1z M288,156.6l-0.5-0.2l-0.9,2.5l0.5,0.2c0.8,0.3,1.3,0,1.6-0.9C289,157.4,288.7,156.8,288,156.6z M323.6,159.1
			c-0.4,0.1-0.6,0.5-0.5,0.9c0.1,0.4,0.5,0.6,0.9,0.5c0.4-0.1,0.6-0.5,0.5-0.9C324.4,159.1,324,158.9,323.6,159.1z M338.5,159.4
			l-0.2,0.1c-11.9,6.2-23.2,7.5-30.6,7.6l0,0h-0.2c-7.4,0-18.7-1.4-30.6-7.6l-0.2-0.1l0,0c-0.3-0.3-0.5-0.7-0.3-1l4.7-10
			c0.1,0.3,0.3,0.5,0.6,0.6l0.2,0.1c2.4,1.3,5,2.4,7.6,3.4c5.9,2.1,12,3.1,18.1,3.2h0.2c6.1,0,12.2-1,18.1-3.2
			c2.6-0.9,5.2-2.1,7.6-3.4l0.2-0.1c0.3-0.2,0.4-0.3,0.6-0.6l4.6,10C338.9,158.7,338.8,159.1,338.5,159.4z M283.2,156
			c0-0.3-0.3-0.5-0.5-0.5l0,0c-0.3,0-0.6,0.3-0.6,0.6c0,0.3,0.3,0.5,0.6,0.5C282.9,156.6,283.2,156.3,283.2,156z M288.2,156
			l-1.2-0.4c0,0.2,0,0.4-0.2,0.9l-0.6,1.8c-0.2,0.4-0.3,0.7-0.4,0.8l1.2,0.4c1.1,0.4,2,0,2.3-1.1C289.7,157.2,289.3,156.5,288.2,156
			z M294.2,157.9l-2.3-0.6c0.1,0.2,0,0.4-0.1,0.9l-0.5,1.9c-0.1,0.4-0.2,0.7-0.3,0.9l2.3,0.6l0.2-0.6c-0.2,0.1-0.3,0-0.8-0.1
			l-0.9-0.3l0.3-1.1l0.9,0.3c0.2,0.1,0.3,0.1,0.4,0.2l0.2-0.6c-0.1,0-0.3,0-0.5-0.1l-0.9-0.3l0.3-1l0.9,0.3c0.4,0.1,0.6,0.2,0.7,0.3
			L294.2,157.9z M298.2,158.7c-0.2-0.1-0.3-0.3-0.7-0.3c-0.7-0.1-1.2,0.3-1.3,0.8c-0.1,0.5,0.3,0.9,0.6,1.2c0.3,0.3,0.5,0.5,0.5,0.8
			c-0.1,0.3-0.3,0.4-0.7,0.3c-0.3-0.1-0.5-0.3-0.6-0.5l0,0l-0.3,0.6c0.2,0.2,0.4,0.3,0.9,0.4c0.7,0.1,1.2-0.3,1.3-0.8
			s-0.3-0.9-0.5-1.2c-0.3-0.3-0.5-0.5-0.5-0.8c0.1-0.3,0.3-0.4,0.6-0.3c0.3,0.1,0.4,0.2,0.5,0.3l0,0L298.2,158.7z M301.7,159.1
			l-1.2-0.1c0.1,0.2,0.1,0.4,0,0.9l-0.2,1.9c0,0.4-0.1,0.7-0.2,0.9l1.2,0.1c1.2,0.1,1.9-0.5,2-1.6
			C303.5,159.9,302.8,159.2,301.7,159.1z M308,159.4h-2.4c0.1,0.2,0.1,0.4,0.1,0.9v2c0,0.4,0,0.7-0.1,0.9h2.4v-0.6
			c-0.2,0.1-0.3,0.1-0.8,0.1h-0.9v-1.1h0.9c0.2,0,0.3,0,0.5,0.1V161c-0.1,0-0.3,0.1-0.5,0.1h-0.9v-1h0.9c0.4,0,0.6,0,0.8,0.1V159.4z
			 M315.9,162.6l-0.1-0.6c-0.2,0.1-0.3,0.2-0.7,0.2l-0.3-3.2h-0.3l-0.9,0.5l0.1,0.5l0.7-0.3l0.3,2.6c-0.4,0.1-0.6,0.1-0.8,0l0.1,0.6
			L315.9,162.6z M320.2,160.6L320.2,160.6c-0.2-0.8-0.9-1.1-1.7-0.9l-0.1-0.8l0.6-0.1c0.4-0.1,0.6-0.1,0.8,0l-0.1-0.6l-1.8,0.3
			l0.3,1.9c0.7-0.3,1.6-0.3,1.6,0.3c0.1,0.5-0.3,0.8-0.7,0.9c-0.3,0.1-0.5,0-0.8-0.1h-0.1l0.1,0.6c0.3,0.1,0.6,0.1,0.9,0
			C319.8,162,320.4,161.4,320.2,160.6z M325,159.4c-0.2-0.6-0.8-1-1.5-0.9c-0.2,0-0.3,0.1-0.3,0.2c0.2-0.5,0.4-1.1,0.6-1.6l-0.6,0.2
			c-0.2,0.4-0.3,0.8-0.5,1.2c-0.2,0.6-0.3,1.1-0.2,1.6c0.2,0.7,0.9,1,1.6,0.9C324.8,160.8,325.2,160.1,325,159.4z M329.2,158.1
			c-0.2-0.3-0.4-0.6-0.9-0.7c0.3-0.3,0.3-0.6,0.2-0.9c-0.2-0.5-0.8-0.8-1.4-0.5c-0.3,0.1-0.6,0.3-0.8,0.5l0.2,0.6h0.1
			c0.1-0.2,0.3-0.4,0.6-0.6c0.3-0.1,0.6,0,0.8,0.3c0.2,0.4-0.1,0.7-0.8,0.9l0.2,0.4c0.5-0.2,1.1-0.3,1.3,0.3
			c0.1,0.3-0.1,0.7-0.5,0.8c-0.3,0.1-0.7,0.1-0.9-0.1h-0.1l0.2,0.6c0.3,0.1,0.6,0.1,0.9-0.1C329.2,159.3,329.5,158.7,329.2,158.1z
			 M333.1,155.8c0-0.3-0.3-0.5-0.5-0.5l0,0c-0.3,0-0.6,0.3-0.6,0.6c0,0.3,0.3,0.5,0.6,0.5C332.9,156.4,333.1,156.1,333.1,155.8z
			 M301.6,159.7l-0.5-0.1l-0.3,2.7l0.5,0.1c0.8,0.1,1.3-0.3,1.4-1.2C302.8,160.2,302.4,159.7,301.6,159.7z M277.2,145.9
			c0.2,0.1,0.4,0.2,0.6,0.1c0.3-0.1,0.4-0.2,0.5-0.3c0.3-0.3,0.2-0.9-0.3-1.1l-0.3-0.2c-1.2-0.8-2.2-1.6-3.5-2.6l-0.2-0.2
			c-0.3-0.2-0.3-0.4-0.4-0.7l-1.1,1.6c1.6,1.3,2.9,2.3,4.3,3.3L277.2,145.9z M281.8,148.6l0.2,0.1c1.7,0.9,3.5,1.7,5.4,2.5l0.6-2
			l0,0c-0.2,0.1-0.3,0.1-0.4,0.1c-0.2,0-0.3,0-0.5-0.1l-0.2-0.1c-1.4-0.6-2.6-1.1-4-1.9l-0.3-0.2c-0.4-0.2-0.9-0.1-1.1,0.3
			c-0.1,0.2-0.1,0.4-0.1,0.7C281.5,148.3,281.6,148.5,281.8,148.6z M341.4,140.7c0,0.3-0.2,0.6-0.5,0.9l-0.2,0.2
			c-1.3,1-2.3,1.8-3.5,2.6l-0.3,0.2c-0.3,0.3-0.5,0.8-0.3,1.1c0.1,0.2,0.3,0.3,0.5,0.3c0.3,0.1,0.4,0,0.6-0.1l0.2-0.2
			c1.6-1,3-2.2,4.7-3.6l-1.6-2.2l0,0C341.4,140.1,341.4,140.4,341.4,140.7z M354.9,92.7c0,6.8-1.2,13.5-3.5,19.8
			c-2.3,6.1-5.6,11.6-9.8,16.5c-4.3,4.9-9.4,8.7-15,11.5c-6,2.8-12.3,4.3-18.9,4.3c-6.6,0-12.9-1.5-18.9-4.3
			c-5.7-2.7-10.7-6.6-15-11.5c-4.2-4.7-7.5-10.3-9.8-16.5c-2.3-6.3-3.5-12.9-3.5-19.8s1.2-13.5,3.5-19.8c2.3-6.1,5.6-11.6,9.8-16.5
			c4.3-4.9,9.3-8.7,15-11.5c6-2.8,12.3-4.3,18.9-4.3c6.6,0,12.9,1.5,18.9,4.3c5.7,2.7,10.7,6.6,15,11.5c4.2,4.7,7.5,10.3,9.8,16.5
			C353.7,79.3,354.9,85.9,354.9,92.7z M353.5,92.7c0-6.6-1.1-13.2-3.5-19.3c-2.2-6-5.4-11.4-9.6-16c-4.2-4.7-9.1-8.5-14.6-11.1
			c-5.8-2.8-11.9-4.1-18.3-4.1c-6.4,0-12.5,1.4-18.3,4.1c-5.5,2.6-10.4,6.4-14.6,11.1c-4.1,4.7-7.3,10-9.6,16
			c-2.3,6.1-3.5,12.6-3.5,19.3s1.1,13.2,3.5,19.3c2.2,6,5.4,11.4,9.6,16c4.2,4.7,9.1,8.5,14.6,11.1c5.8,2.8,11.9,4.1,18.3,4.1
			c6.4,0,12.5-1.4,18.3-4.1c5.5-2.6,10.4-6.4,14.6-11.1c4.1-4.7,7.3-10,9.6-16C352.4,105.9,353.5,99.4,353.5,92.7z M341.6,76.6
			c1.9,5.1,2.8,10.5,2.8,16.1c0,5.6-0.9,11-2.8,16.1c-1.8,4.9-4.5,9.4-7.8,13.2c-3.4,3.8-7.3,6.8-11.7,9c-4.6,2.2-9.4,3.3-14.4,3.3
			c-5,0-9.8-1.1-14.4-3.3c-4.4-2.1-8.4-5.1-11.7-9c-3.4-3.8-6-8.3-7.8-13.2c-1.9-5.1-2.8-10.5-2.8-16.1s0.9-11,2.8-16.1
			c1.8-4.9,4.5-9.4,7.8-13.2c3.4-3.8,7.3-6.8,11.7-9c4.6-2.2,9.4-3.3,14.4-3.3c5,0,9.8,1.1,14.4,3.3c4.4,2.1,8.4,5.1,11.7,9
			C337.1,67.2,339.8,71.7,341.6,76.6z M343.1,92.7c0-5.4-0.9-10.7-2.8-15.6c-1.8-4.8-4.3-9.1-7.6-12.8c-3.3-3.7-7.1-6.6-11.3-8.6
			c-4.4-2.1-9.1-3.2-13.8-3.2c-4.8,0-9.5,1-13.8,3.2c-4.2,2-8,4.9-11.3,8.6c-3.3,3.7-5.9,8-7.6,12.8c-1.8,4.9-2.8,10.3-2.8,15.6
			c0,5.4,0.9,10.7,2.8,15.6c1.8,4.8,4.3,9.1,7.6,12.8c3.3,3.7,7.1,6.6,11.3,8.6c4.4,2.1,9.1,3.2,13.8,3.2c4.8,0,9.5-1,13.8-3.2
			c4.2-2,8-4.9,11.3-8.6c3.3-3.7,5.9-8,7.6-12.8C342.2,103.4,343.1,98.2,343.1,92.7z M307.6,47.3c0.4,0,0.8-0.3,0.8-0.8
			s-0.3-0.8-0.8-0.8c-0.4,0-0.8,0.3-0.8,0.8S307.2,47.3,307.6,47.3z M307.6,138c-0.4,0-0.8,0.3-0.8,0.8c0,0.4,0.3,0.8,0.8,0.8
			c0.4,0,0.8-0.3,0.8-0.8C308.4,138.4,308,138,307.6,138z M282.9,127.5c-0.7-0.6-1.6-0.5-2.2,0.3c-0.7,0.8-0.6,1.6,0,2.2
			s1.6,0.5,2.2-0.3C283.6,129,283.6,128.1,282.9,127.5z M327.5,133.1c-0.5,0.3-0.7,0.7-0.4,1.1s0.7,0.4,1.2,0.1l0.8-0.4l-0.8-1.3
			L327.5,133.1z M267.2,102.8c-0.9,0.3-1.5,0.9-1.2,1.8c0.2,0.9,0.9,1.3,1.9,1c0.9-0.3,1.5-0.9,1.3-1.8
			C268.9,103.1,268.2,102.6,267.2,102.8z M267,84c0.9,0.2,1.7-0.3,1.9-1.1s-0.3-1.6-1.3-1.8c-0.9-0.2-1.7,0.3-1.9,1.1
			S266,83.8,267,84z M287.7,52.4c0.5-0.3,0.7-0.7,0.4-1.1s-0.7-0.4-1.2-0.1l-0.8,0.4l0.8,1.3L287.7,52.4z M332.3,58
			c0.7,0.6,1.6,0.5,2.2-0.3c0.7-0.8,0.6-1.6,0-2.2c-0.7-0.6-1.6-0.5-2.2,0.3C331.7,56.5,331.7,57.4,332.3,58z M283.4,56.2l-1.8-1.1
			l0,0l0.9,2L283.4,56.2z M272.5,65.6L272.5,65.6l1.4,1.6l0.7-1L272.5,65.6z M348,82.6c0.9-0.3,1.5-0.9,1.2-1.8
			c-0.2-0.9-0.9-1.3-1.9-1c-0.9,0.3-1.5,0.9-1.3,1.8C346.2,82.4,347,82.8,348,82.6z M348.2,101.4c-0.9-0.2-1.7,0.3-1.9,1.1
			s0.3,1.6,1.3,1.8c0.9,0.2,1.7-0.3,1.9-1.1C349.7,102.4,349.2,101.6,348.2,101.4z M353.1,92.7c0,6.6-1.1,13-3.5,19.1
			c-2.2,6-5.4,11.3-9.5,15.9c-4.1,4.7-9,8.4-14.4,11c-5.7,2.8-11.8,4.1-18.1,4.1c-6.3,0-12.4-1.4-18.1-4.1
			c-5.4-2.6-10.3-6.3-14.4-11c-4.1-4.6-7.2-9.9-9.5-15.9c-2.2-6-3.5-12.5-3.5-19.1c0-6.6,1.1-13,3.5-19.1c2.2-6,5.4-11.3,9.5-15.9
			c4.1-4.7,9-8.4,14.4-11c5.7-2.8,11.8-4.1,18.1-4.1c6.3,0,12.4,1.4,18.1,4.1c5.4,2.6,10.3,6.3,14.4,11c4.1,4.6,7.2,9.9,9.5,15.9
			C351.9,79.7,353.1,86.1,353.1,92.7z M350.7,86c-0.2,0.1-0.5,0.2-1,0.3l-2.2,0.3c-0.5,0.1-0.9,0.1-1,0l0.1,0.9
			c0.2-0.1,0.4-0.2,0.9-0.3l1-0.1l0.1,0.9c0,0.3,0,0.4,0,0.6l0.7-0.1c-0.1-0.2-0.1-0.3-0.1-0.6L349,87l1.3-0.1l0.1,1
			c0.1,0.5,0.1,0.7,0,0.9l0.8-0.1L350.7,86z M347.1,79c-1.3,0.3-2,1.4-1.7,2.7c0.3,1.3,1.4,1.9,2.7,1.6c1.3-0.3,2-1.4,1.7-2.7
			C349.5,79.4,348.4,78.8,347.1,79z M344.7,69.6l-2.1,0.9c-0.5,0.3-0.8,0.3-0.9,0.3l1.2,2.5l0.7-0.3c-0.2-0.1-0.3-0.3-0.5-0.8
			l-0.4-0.9l1.2-0.6l0.5,1c0.1,0.3,0.2,0.4,0.2,0.5l0.6-0.3c-0.1-0.1-0.2-0.3-0.3-0.5l-0.5-1l1.1-0.5l0.4,0.9
			c0.2,0.4,0.3,0.7,0.3,0.9l0.7-0.3l-1.2-2.5C345.5,69.3,345.2,69.4,344.7,69.6z M340.9,67.4c-0.3,0.2-0.6,0.1-0.9-0.3
			c-0.2-0.3-0.3-0.7-0.1-0.9l0,0l-0.8,0.3c0,0.3,0.1,0.7,0.3,1.1c0.4,0.7,1.1,0.9,1.7,0.5c0.5-0.3,0.6-0.9,0.6-1.4
			c0.1-0.5,0-0.9,0.3-1.1c0.3-0.2,0.6,0,0.8,0.3s0.2,0.5,0.2,0.7l0,0l0.7-0.3c0-0.2-0.1-0.5-0.3-0.8c-0.4-0.7-1.1-0.9-1.7-0.5
			c-0.5,0.3-0.5,0.9-0.6,1.5C341.2,66.8,341.2,67.2,340.9,67.4z M336.4,63.1c0.7,0.9,1.6,0.9,2.2,0.3l1.5-1.2
			c0.4-0.3,0.7-0.5,0.9-0.5l-0.6-0.7c-0.1,0.2-0.3,0.3-0.6,0.7l-1.5,1.2c-0.5,0.4-0.9,0.4-1.4-0.1c-0.4-0.5-0.3-1,0.2-1.4l1.5-1.2
			c0.3-0.3,0.6-0.4,0.8-0.5l-0.6-0.7c-0.1,0.2-0.3,0.4-0.7,0.8l-1.5,1.2C335.9,61.4,335.7,62.3,336.4,63.1z M331.9,58.4
			c0.9,0.9,2.2,0.8,3.2-0.3c0.9-1,0.9-2.2-0.2-3.1c-0.9-0.9-2.2-0.8-3.1,0.3C330.9,56.2,330.9,57.5,331.9,58.4z M325,53.4l0.8,0.5
			c0-0.2,0.1-0.4,0.3-0.9l0.6-0.9l1.8,1.1l-0.6,0.9c-0.3,0.4-0.4,0.6-0.6,0.7l0.8,0.5c0-0.3,0.2-0.5,0.4-0.9l1.2-2
			c0.3-0.4,0.4-0.7,0.7-0.8l-0.8-0.5c0,0.2-0.1,0.4-0.3,0.9l-0.4,0.7l-1.8-1.1l0.4-0.7c0.3-0.4,0.4-0.6,0.6-0.7l-0.8-0.5
			c0,0.3-0.2,0.5-0.4,0.9l-1.3,2.1C325.4,53,325.2,53.3,325,53.4z M306.4,46.5c0,0.7,0.5,1.2,1.2,1.2c0.7,0,1.2-0.5,1.2-1.2
			s-0.5-1.2-1.2-1.2C306.9,45.3,306.4,45.8,306.4,46.5z M285.1,51.4c0.2,0.1,0.3,0.3,0.7,0.8l1.2,2c0.3,0.4,0.4,0.7,0.4,0.9l0.8-0.5
			c-0.2-0.1-0.3-0.3-0.6-0.7l-0.3-0.6l0.9-0.6l0.9,0.6c0.3,0.3,0.4,0.3,0.4,0.4l0.9-0.5c-0.1,0-0.3,0-0.6-0.3l-1.1-0.7
			c0.3-0.4,0.3-0.9,0.1-1.5c-0.4-0.8-1.2-0.8-2-0.3L285.1,51.4z M280.8,54.7l1.6,3.9c0.1,0.2,0.1,0.3,0.1,0.4l0.8-0.6
			c-0.2,0-0.3-0.2-0.3-0.4l-0.2-0.3l1.2-1l0.3,0.2c0.3,0.2,0.4,0.3,0.4,0.4l0.8-0.6c-0.1,0-0.3,0-0.4-0.2l-3.5-2.2L280.8,54.7z
			 M274.6,61.1c0.3,0.1,0.4,0.3,0.9,0.6l1.8,1.6c0.3,0.3,0.5,0.5,0.6,0.7l0.6-0.7c-0.2,0-0.4-0.2-0.8-0.5l-1.6-1.4l0,0l2.3,0.3
			l0.1-0.1l-0.7-2.2l0,0l1.6,1.4c0.3,0.3,0.5,0.5,0.6,0.7l0.6-0.7c-0.3-0.1-0.4-0.3-0.9-0.6l-1.7-1.5c-0.4-0.3-0.6-0.5-0.7-0.8
			l-0.5,0.6l0.8,2.5l0,0l-2.6-0.4L274.6,61.1z M271.6,65.6l2.7,3.2c0.2,0.2,0.2,0.3,0.2,0.3l0.5-0.9c-0.2,0-0.3-0.1-0.5-0.3
			l-0.3-0.3l0.9-1.4l0.3,0.1c0.3,0.1,0.5,0.2,0.5,0.3l0.5-0.9c-0.1,0.1-0.3,0-0.4,0l-4.1-1L271.6,65.6z M266.4,76.9
			c0.3,0,0.5,0.1,1,0.3l2.2,0.8c0.5,0.2,0.8,0.3,0.9,0.4l0.3-0.9c-0.2,0-0.4,0-0.9-0.2l-1.7-0.6l-0.3-0.1l0,0l0.4-0.1l3.3-0.9
			l0.3-0.7c-0.3,0-0.5-0.1-1-0.3l-2.2-0.8c-0.5-0.2-0.8-0.3-0.9-0.4l-0.3,0.9c0.2,0,0.4,0,0.9,0.2l1.8,0.7l0.3,0.1l0,0l-0.4,0.1
			l-3.4,0.9L266.4,76.9z M266.8,84.7c1.3,0.3,2.4-0.4,2.7-1.7c0.3-1.3-0.4-2.3-1.8-2.6c-1.3-0.3-2.4,0.4-2.7,1.7
			C264.8,83.4,265.5,84.4,266.8,84.7z M265.2,89.6c0.7,0.1,0.9-0.3,1.4-0.8c0.3-0.3,0.5-0.7,0.9-0.7c0.3,0,0.5,0.3,0.5,0.7
			c0,0.3-0.3,0.7-0.5,0.8l0,0l0.8,0.3c0.2-0.2,0.3-0.6,0.3-1c0.1-0.8-0.4-1.4-1.1-1.5c-0.6-0.1-0.9,0.3-1.4,0.8
			c-0.3,0.3-0.5,0.7-0.9,0.7s-0.5-0.3-0.5-0.7s0.2-0.5,0.3-0.6l0,0l-0.7-0.2c-0.1,0.2-0.3,0.4-0.3,0.8
			C264.1,89,264.6,89.6,265.2,89.6z M264.5,99.5c0.2-0.1,0.5-0.2,1-0.3l2.2-0.3c0.5-0.1,0.9-0.1,1,0l-0.1-0.9
			c-0.2,0.1-0.4,0.2-0.9,0.3l-1,0.1l-0.1-0.9c0-0.3,0-0.4,0-0.6l-0.7,0.1c0.1,0.2,0.1,0.3,0.1,0.6l0.1,0.9l-1.3,0.1l-0.1-1
			c-0.1-0.5-0.1-0.7,0-0.9l-0.8,0.1L264.5,99.5z M268.1,106.4c1.3-0.3,2-1.4,1.7-2.7c-0.3-1.3-1.4-1.9-2.7-1.6
			c-1.3,0.3-2,1.4-1.7,2.7C265.7,106.1,266.8,106.7,268.1,106.4z M270.5,115.8l2.1-0.9c0.5-0.3,0.8-0.3,0.9-0.3l-1.2-2.5l-0.7,0.3
			c0.2,0.1,0.3,0.3,0.5,0.8l0.4,0.9l-1.2,0.6l-0.5-1c-0.1-0.3-0.2-0.4-0.2-0.5l-0.6,0.3c0.1,0.1,0.2,0.3,0.3,0.5l0.5,1l-1.1,0.5
			l-0.4-0.9c-0.2-0.4-0.3-0.7-0.3-0.9l-0.7,0.3l1.2,2.5C269.8,116.2,270.1,116,270.5,115.8z M274.3,118.1c0.3-0.2,0.6-0.1,0.9,0.3
			c0.2,0.3,0.3,0.7,0.1,0.9l0,0l0.8-0.3c0-0.3-0.1-0.7-0.3-1.1c-0.4-0.7-1.1-0.9-1.7-0.5c-0.5,0.3-0.6,0.9-0.6,1.4
			c-0.1,0.5,0,0.9-0.3,1.1c-0.3,0.2-0.6,0-0.8-0.3s-0.2-0.5-0.2-0.7l0,0l-0.7,0.3c0,0.2,0.1,0.5,0.3,0.8c0.4,0.7,1.1,0.9,1.7,0.5
			c0.5-0.3,0.5-0.9,0.6-1.5C274,118.6,274,118.3,274.3,118.1z M278.8,122.3c-0.7-0.9-1.6-0.9-2.2-0.3l-1.5,1.2
			c-0.4,0.3-0.7,0.5-0.9,0.5l0.6,0.7c0.1-0.2,0.3-0.3,0.6-0.7l1.5-1.2c0.5-0.4,0.9-0.4,1.4,0.1c0.4,0.5,0.3,1-0.2,1.4l-1.5,1.2
			c-0.3,0.3-0.6,0.4-0.8,0.5l0.6,0.7c0.1-0.2,0.3-0.4,0.7-0.8l1.5-1.2C279.4,124,279.5,123.2,278.8,122.3z M283.4,127.1
			c-0.9-0.9-2.2-0.8-3.2,0.3c-0.9,1-0.9,2.2,0.2,3.1c0.9,0.9,2.2,0.8,3.1-0.3C284.3,129.2,284.3,127.9,283.4,127.1z M290.2,132.1
			l-0.8-0.5c0,0.2-0.1,0.4-0.3,0.9l-0.6,0.9l-1.8-1.1l0.6-0.9c0.3-0.4,0.4-0.6,0.6-0.7l-0.8-0.5c0,0.3-0.2,0.5-0.4,0.9l-1.2,2
			c-0.3,0.4-0.4,0.7-0.7,0.8l0.8,0.5c0-0.2,0.1-0.4,0.3-0.9l0.4-0.7l1.8,1.1l-0.4,0.7c-0.3,0.4-0.4,0.6-0.6,0.7l0.8,0.5
			c0-0.3,0.2-0.5,0.4-0.9l1.3-2.1C289.8,132.4,290,132.1,290.2,132.1z M308.8,138.7c0-0.7-0.5-1.2-1.2-1.2c-0.7,0-1.2,0.5-1.2,1.2
			c0,0.7,0.5,1.2,1.2,1.2C308.3,139.9,308.8,139.4,308.8,138.7z M322.2,131.4c4.5-2.2,8.5-5.2,11.8-9.1c3.5-3.9,6.1-8.4,7.9-13.4
			c1.9-5.2,2.9-10.6,2.9-16.3s-0.9-11.1-2.9-16.3c-1.9-5-4.6-9.5-7.9-13.4c-3.5-3.9-7.4-6.9-11.8-9.1c-4.7-2.2-9.6-3.4-14.6-3.4
			c-5.1,0-10,1.1-14.6,3.4c-4.5,2.2-8.5,5.2-11.8,9.1c-3.5,3.9-6.1,8.4-7.9,13.4c-1.9,5.2-2.9,10.6-2.9,16.3
			c0,5.6,0.9,11.1,2.9,16.3c1.9,5,4.6,9.5,7.9,13.4c3.5,3.9,7.4,6.9,11.8,9.1c4.7,2.2,9.6,3.4,14.6,3.4
			C312.7,134.7,317.6,133.6,322.2,131.4z M330.1,134c-0.2-0.1-0.3-0.3-0.7-0.8l-1.2-2c-0.3-0.4-0.4-0.7-0.4-0.9l-0.8,0.5
			c0.2,0.1,0.3,0.3,0.6,0.7l0.3,0.6l-0.9,0.6l-0.9-0.6c-0.3-0.3-0.4-0.3-0.4-0.4l-0.9,0.5c0.1,0,0.3,0,0.6,0.3l1.1,0.7
			c-0.3,0.4-0.3,0.9-0.1,1.5c0.4,0.8,1.2,0.8,2,0.3L330.1,134z M334.4,130.8l-1.6-3.9c-0.1-0.2-0.1-0.3-0.1-0.4l-0.8,0.6
			c0.2,0,0.3,0.2,0.3,0.4l0.2,0.3l-1.2,1l-0.3-0.2c-0.3-0.2-0.4-0.3-0.4-0.4l-0.8,0.6c0.1,0,0.3,0,0.4,0.2l3.5,2.2L334.4,130.8z
			 M340.5,124.4c-0.3-0.1-0.4-0.3-0.9-0.6l-1.8-1.6c-0.3-0.3-0.5-0.5-0.6-0.7l-0.6,0.7c0.2,0,0.4,0.2,0.8,0.5l1.6,1.4l0,0l-2.3-0.3
			l-0.1,0.1l0.7,2.2l0,0l-1.6-1.4c-0.3-0.3-0.5-0.5-0.6-0.7l-0.6,0.7c0.3,0.1,0.4,0.3,0.9,0.6l1.7,1.5c0.4,0.3,0.6,0.5,0.7,0.8
			l0.5-0.6l-0.8-2.5l0,0l2.6,0.4L340.5,124.4z M343.6,119.9l-2.7-3.2c-0.2-0.2-0.2-0.3-0.2-0.3l-0.5,0.9c0.2,0,0.3,0.1,0.5,0.3
			l0.3,0.3l-0.9,1.4l-0.3-0.1c-0.3-0.1-0.5-0.2-0.5-0.3l-0.5,0.9c0.1-0.1,0.3,0,0.4,0l4.1,1L343.6,119.9z M348.7,108.6
			c-0.3,0-0.5-0.1-1-0.3l-2.2-0.8c-0.5-0.2-0.8-0.3-0.9-0.4l-0.3,0.9c0.2,0,0.4,0,0.9,0.2l1.7,0.6l0.3,0.1l0,0l-0.4,0.1l-3.3,0.9
			l-0.3,0.7c0.3,0,0.5,0.1,1,0.3l2.2,0.8c0.5,0.2,0.8,0.3,0.9,0.4l0.3-0.9c-0.2,0-0.4,0-0.9-0.2l-1.8-0.7l-0.3-0.1l0,0l0.4-0.1
			l3.4-0.9L348.7,108.6z M348.4,100.7c-1.3-0.3-2.4,0.4-2.7,1.7c-0.3,1.3,0.4,2.3,1.8,2.6c1.3,0.3,2.4-0.4,2.7-1.7
			C350.4,102,349.7,101,348.4,100.7z M351,97.2c0.1-0.8-0.4-1.4-1.1-1.5c-0.7-0.1-0.9,0.3-1.4,0.8c-0.3,0.3-0.5,0.7-0.9,0.7
			c-0.3,0-0.6-0.3-0.5-0.7c0-0.3,0.3-0.7,0.5-0.8l0,0l-0.8-0.3c-0.2,0.2-0.3,0.6-0.3,1c-0.1,0.8,0.4,1.4,1.1,1.5
			c0.6,0.1,0.9-0.3,1.4-0.8c0.3-0.3,0.5-0.7,0.9-0.7c0.3,0,0.5,0.3,0.5,0.7s-0.2,0.5-0.3,0.6l0,0l0.7,0.2
			C350.9,97.9,351,97.6,351,97.2z M342.7,119.9L342.7,119.9l-1.4-1.6l-0.7,1L342.7,119.9z M331.8,129.3l1.8,1.1l0,0l-0.9-2
			L331.8,129.3z M267.7,56.8c0.7-1.6,1.3-5-2.8-8.3c2.4,0.1,5.9-0.1,8.9-1c3.2-0.9,6.6-3.3,8.5-5.8c1.6-2.2,2.4-4.7,2.4-7.6
			c0-2-0.4-4.1-1.2-6.2l0,0v-0.1c0.2,3.1-2.1,5.7-6.6,7.8c-3.2,1.5-7.3,2.4-11.3,3.4c-5.9,1.4-11.5,2.7-14,5.4c0,0-1.7,1.3-3.5,4
			c-1,1.6-1.9,3.3-2.5,5.2c-0.8,2.3-1.2,4.8-1.3,7.4c-0.1,1.3,0,2.7,0.3,4c-0.3-2.8,0.4-5.6,1.9-8c1.6-2.6,4.1-4.4,6.9-5.1
			c1.6-0.4,3-0.5,4.3-0.3c1.5,0.3,2.7,1,3.5,2.2c1.6,2.2,1.6,5.3-0.1,7.6l0,0l0,0c0.2,0,0.3,0,0.4,0c0.9,0,2.1-0.4,3.2-1.1
			C266,59.4,267.1,58.1,267.7,56.8z M244.5,130.6L244.5,130.6L244.5,130.6c4.1,7.4,8.9,12.2,13.1,12.9c0.3,0.1,0.8,0.1,1.1,0.1
			c0.3,0,0.5,0,0.8-0.1l0,0c1.1-0.4,1.9-1.1,2.4-2.2c0.9-2.1,0.3-5.1-0.4-6.8c-0.5,0.3-1.1,0.4-1.7,0.3c-1-0.2-2.9-1-5.6-4.1
			c-1.9-2.1-3.5-4.4-4.1-5.9v-0.1v0.1c0,0.1-0.6,4.8,0.6,7.2c0,0.1,0,0.1,0,0.1C250.2,132.6,246.4,131.3,244.5,130.6z M282.8,26.3
			c-0.7-1-1.7-1.9-3-2.5c-2.1-0.9-4.9-1.4-8.1-1c-3.6,0.3-7.6,1.5-12,3.4h-0.1h0.1c0.1,0,5.3,1,7.5,2.2c-1.2,0.9-2.3,2.2-3,3.2
			c-0.8,1.1-1.3,2-1.3,2.1v0.1h0.1c1.6-0.7,4.1-1.2,6.6-1.4c2.9-0.2,5.4,0.1,6.9,0.9c0.7,0.3,1.2,0.9,1.6,1.5
			c1.3-0.7,2.3-1.5,3.2-2.2C282.8,30.5,283.4,28.6,282.8,26.3L282.8,26.3z M237.4,77.5c0.3,1.7,1.1,3.2,2.2,4.1
			c0.9,0.8,2.2,1.2,3.5,1.2h0.1c1.4,0,2.9-0.4,4.5-1.3c-0.1,0.1-0.2,0.2-0.3,0.3c-0.7,0.9-2.4,3.2-4.1,5.8c-2,3-3.2,5.3-3.7,7.1l0,0
			c0,0,0,0,0,0.1V95c-0.4,1.9-0.7,3.9-0.3,6c0.4,2.3,1.8,4.4,4.1,6.3c1.1,0.9,2.2,1.6,3.1,2c-0.5-3-0.2-6.6,1.1-10.3
			c1.1-3.2,2.8-6.4,4.7-8.9c-0.8,2.4-0.9,4.5-0.3,6.3c0.8,2.5,2.8,4.3,6.2,5.4h0.1v-0.1c-0.9-2.6-1.3-5.3-0.9-7.5
			c0.3-2.1,1.2-3.6,2.4-4.2l0,0v-0.1c0.3-6,1.5-11.7,3.5-17.3c0.4-1.2,0.9-2.3,1.5-3.5l0,0l-0.2-0.1c-3.8-1.2-6.8-2.8-9-4.8
			c-1.8-1.6-3-3.5-3.6-5.5c-0.7-2.6-0.1-4.9,0.9-6.4c-2.4,0.8-4.5,2.4-6,4.7c-1.8,2.8-2.3,6.3-1.5,9.8l0,0c0,0,0,0,0,0.1l0,0l0,0
			c0.3,0.8,0.9,1.6,1.4,2.4c1.2,1.7,2.4,3,3.1,3.7c1.6-0.6,3.3-1,4.7-0.4c-1.5,0-2.9,0.3-4.3,0.8l0,0c-0.7,0.3-1.3,0.5-2,0.8
			c-2,0.9-3.9,1.6-5.6,1.5c-1.9-0.2-3.4-1.6-4.7-4.4v-0.1v0.1C237.2,73.6,237,75.7,237.4,77.5z M238.7,98.2
			c-0.3,1.4-0.5,2.4-0.3,5.8c0.2,3.3,1.6,8.6,2.8,12.4c0.6,2.1,3.8,3.9,7.5,6c2.4,1.4,5.2,3,7.6,4.9c2.8,2.2,4.6,4.4,5.5,6.7v0.1
			l0,0c0.4,0.9,0.8,2.2,0.9,3.2c0.3,1.6,0.1,3-0.3,4.1c-0.3,0.5-0.5,1-0.9,1.4c0.3-0.2,0.6-0.3,0.9-0.6c1.3-1.1,3-2.9,4.2-5.2
			c0.7-1.3,0.9-2.2,0.9-2.2s0.8-3.2-0.5-7.2c-0.8-2.3-2.2-4.4-4.1-6.3c-2.3-2.3-5.5-4.2-9.5-5.7c3.1-0.9,4.8-3.1,4.7-5.9
			c0-1.5-0.6-3-1.6-4.3c-1-1.3-2.4-2.2-4-2.7l0,0l0,0c0.5,1.5,0.8,2.9,0.6,4.2c-0.2,1.3-0.7,2.2-1.5,2.8c-0.9,0.6-2,0.7-3.3,0.3
			c-0.2-0.1-0.3-0.1-0.4-0.2c-1.3-0.4-3-1-4.7-2.6C239.4,104.5,238.6,101.3,238.7,98.2z"/>
	</g>
</g>
<g>
	<path class="st3" d="M195.1,471.8c0,2.9,0.1,4.8,0.6,6h-5.9c0.5-0.9,0.6-2.2,0.6-4.5l0-9.2h-0.1l-5.6,8.7h-0.4l-5.7-8.7h-0.1l0,9.2
		c0,2.4,0.1,3.6,0.6,4.5h-5.9c0.5-1,0.6-2.4,0.6-4.7V462c0-2.9-0.1-4.8-0.6-6h4.8l6.3,10.5h0.1L191,456h4.8c-0.5,1.2-0.6,3-0.6,6
		V471.8z"/>
	<path class="st3" d="M227.3,477.8c0.4-0.5,0.4-1.1,0-2.7l-0.4-1.5h-7.2l-0.5,1.7c-0.4,1.5-0.4,2.1,0,2.6h-6.1
		c0.6-0.3,0.8-1,1.2-2.4l6.2-19.4h5.4l6.2,19.4c0.4,1.3,0.7,2.1,1.2,2.4H227.3z M225.9,470l-2.6-9.1h-0.1l-2.6,9.1H225.9z"/>
	<path class="st3" d="M263.7,472.8v4.9h-13c0.5-1.2,0.6-3.1,0.6-6V462c0-2.9-0.1-4.8-0.6-6h5.9c-0.5,1.2-0.6,3-0.6,6v11.5h3.2
		C261.5,473.4,262.8,473.3,263.7,472.8z"/>
	<path class="st3" d="M294.9,472.8v4.9h-13c0.5-1.2,0.6-3.1,0.6-6V462c0-2.9-0.1-4.8-0.6-6h5.9c-0.5,1.2-0.6,3-0.6,6v11.5h3.2
		C292.7,473.4,294,473.3,294.9,472.8z"/>
	<path class="st3" d="M311.2,466.8c0-6.8,4.6-11.3,11-11.3c6.5,0,11.1,4.5,11.1,11.3c0,6.9-4.6,11.4-11.1,11.4
		C315.8,478.2,311.2,473.7,311.2,466.8z M328.6,466.8c0-4.4-2.6-7.1-6.3-7.1c-3.7,0-6.3,2.7-6.3,7.1c0,4.4,2.6,7.1,6.3,7.1
		S328.6,471.2,328.6,466.8z"/>
	<path class="st3" d="M352.4,471.8V462c0-2.9-0.1-4.8-0.6-6h9.7c4.7,0,8,2.4,8,7c0,2.9-1.4,5.2-3.8,6.3l2.5,5.4c0.9,2,1.4,2.8,2,3.1
		H364c0.3-0.5,0.2-1.2-0.6-2.9l-2-4.7h-4.5v3.1c0,2.4,0.1,3.6,0.6,4.5h-5.8C352.3,476.6,352.4,474.7,352.4,471.8z M360.8,466.3
		c2.5,0,4-1,4-3.2c0-2.1-1.5-3.1-4-3.1h-3.9v6.3H360.8z"/>
	<path class="st3" d="M387.3,466.8c0-7,5-11.3,11.8-11.3c2,0,3.6,0.3,5.4,0.9l0.1,4.8h-0.2c-1.1-0.9-2.8-1.5-5.1-1.5
		c-4.3,0-7.3,2.7-7.3,7.1c0,4.4,3.1,7.1,7.3,7.1c2.4,0,4-0.6,5.1-1.6h0.2l-0.1,4.9c-1.7,0.6-3.5,0.9-5.5,0.9
		C392.4,478.2,387.3,473.9,387.3,466.8z"/>
	<path class="st3" d="M435.6,477.8c0.4-0.5,0.4-1.1,0-2.7l-0.4-1.5h-7.2l-0.5,1.7c-0.4,1.5-0.4,2.1,0,2.6h-6.1
		c0.6-0.3,0.8-1,1.2-2.4l6.2-19.4h5.4l6.2,19.4c0.4,1.3,0.7,2.1,1.2,2.4H435.6z M434.1,470l-2.6-9.1h-0.1l-2.6,9.1H434.1z"/>
</g>
</svg>
